Dinsical-Regular.ufo
<glyph name="quotedbl" format="2">
  <advance width="309" />
  <unicode hex="0022" />
  <outline>
    <contour>
      <point x="51" y="449" type="line" />
      <point x="119" y="449" type="line" />
      <point x="119" y="680" type="line" />
      <point x="51" y="680" type="line" />
    </contour>
    <contour>
      <point x="190" y="449" type="line" />
      <point x="258" y="449" type="line" />
      <point x="258" y="680" type="line" />
      <point x="190" y="680" type="line" />
    </contour>
  </outline>
</glyph>
<glyph name="numbersign" format="2">
  <advance width="518" />
  <unicode hex="0023" />
  <outline>
    <contour>
      <point x="83" y="0" type="line" />
      <point x="144" y="0" type="line" />
      <point x="173" y="216" type="line" />
      <point x="307" y="216" type="line" />
      <point x="279" y="0" type="line" />
      <point x="340" y="0" type="line" />
      <point x="368" y="216" type="line" />
      <point x="469" y="216" type="line" />
      <point x="469" y="274" type="line" />
      <point x="375" y="274" type="line" />
      <point x="394" y="422" type="line" />
      <point x="493" y="422" type="line" />
      <point x="493" y="479" type="line" />
      <point x="402" y="479" type="line" />
      <point x="428" y="680" type="line" />
      <point x="367" y="680" type="line" />
      <point x="341" y="479" type="line" />
      <point x="207" y="479" type="line" />
      <point x="233" y="680" type="line" />
      <point x="172" y="680" type="line" />
      <point x="145" y="479" type="line" />
      <point x="48" y="479" type="line" />
      <point x="48" y="422" type="line" />
      <point x="139" y="422" type="line" />
      <point x="119" y="274" type="line" />
      <point x="25" y="274" type="line" />
      <point x="25" y="216" type="line" />
      <point x="112" y="216" type="line" />
    </contour>
    <contour>
      <point x="180" y="274" type="line" />
      <point x="200" y="422" type="line" />
      <point x="334" y="422" type="line" />
      <point x="314" y="274" type="line" />
    </contour>
  </outline>
</glyph>
<glyph name="plus" format="2">
  <advance width="503" />
  <unicode hex="002B" />
  <outline>
    <contour>
      <point x="217" y="75" type="line" />
      <point x="286" y="75" type="line" />
      <point x="286" y="239" type="line" />
      <point x="448" y="239" type="line" />
      <point x="448" y="306" type="line" />
      <point x="286" y="306" type="line" />
      <point x="286" y="468" type="line" />
      <point x="217" y="468" type="line" />
      <point x="217" y="306" type="line" />
      <point x="55" y="306" type="line" />
      <point x="55" y="239" type="line" />
      <point x="217" y="239" type="line" />
    </contour>
  </outline>
</glyph>
<glyph name="slash" format="2">
  <advance width="392" />
  <unicode hex="002F" />
  <outline>
    <contour>
      <point x="57" y="-10" type="line" />
      <point x="118" y="-10" type="line" />
      <point x="337" y="680" type="line" />
      <point x="275" y="680" type="line" />
    </contour>
  </outline>
</glyph>
<glyph name="one" format="2">
  <advance width="330" />
  <unicode hex="0031" />
  <outline>
    <contour>
      <point x="171" y="0" type="line" />
      <point x="246" y="0" type="line" />
      <point x="246" y="680" type="line" />
      <point x="170" y="680" type="line" />
      <point x="48" y="589" type="line" />
      <point x="48" y="505" type="line" />
      <point x="171" y="594" type="line" />
    </contour>
  </outline>
</glyph>
<glyph name="two" format="2">
  <advance width="473" />
  <unicode hex="0032" />
  <outline>
    <contour>
      <point x="57" y="0" type="line" />
      <point x="417" y="0" type="line" />
      <point x="417" y="67" type="line" />
      <point x="152" y="67" type="line" />
      <point x="350" y="340" type="line" smooth="yes" />
      <point x="393" y="396" />
      <point x="416" y="444" />
      <point x="416" y="502" type="curve" smooth="yes" />
      <point x="416" y="518" type="line" smooth="yes" />
      <point x="416" y="617" />
      <point x="342" y="690" />
      <point x="237" y="690" type="curve" smooth="yes" />
      <point x="126" y="690" />
      <point x="57" y="620" />
      <point x="57" y="518" type="curve" smooth="yes" />
      <point x="57" y="496" type="line" />
      <point x="131" y="496" type="line" />
      <point x="131" y="513" type="line" smooth="yes" />
      <point x="131" y="586" />
      <point x="170" y="622" />
      <point x="235" y="622" type="curve" smooth="yes" />
      <point x="298" y="622" />
      <point x="339" y="583" />
      <point x="339" y="517" type="curve" smooth="yes" />
      <point x="339" y="502" type="line" smooth="yes" />
      <point x="339" y="464" />
      <point x="324" y="424" />
      <point x="290" y="379" type="curve" smooth="yes" />
      <point x="57" y="61" type="line" />
    </contour>
  </outline>
</glyph>
<glyph name="three" format="2">
  <advance width="497" />
  <unicode hex="0033" />
  <outline>
    <contour>
      <point x="244" y="-10" type="curve" smooth="yes" />
      <point x="359" y="-10" />
      <point x="435" y="63" />
      <point x="435" y="177" type="curve" smooth="yes" />
      <point x="435" y="200" type="line" smooth="yes" />
      <point x="435" y="277" />
      <point x="399" y="337" />
      <point x="335" y="360" type="curve" />
      <point x="388" y="383" />
      <point x="422" y="434" />
      <point x="422" y="499" type="curve" smooth="yes" />
      <point x="422" y="520" type="line" smooth="yes" />
      <point x="422" y="623" />
      <point x="355" y="690" />
      <point x="245" y="690" type="curve" smooth="yes" />
      <point x="135" y="690" />
      <point x="67" y="625" />
      <point x="67" y="523" type="curve" smooth="yes" />
      <point x="67" y="507" type="line" />
      <point x="139" y="507" type="line" />
      <point x="139" y="521" type="line" smooth="yes" />
      <point x="139" y="584" />
      <point x="177" y="622" />
      <point x="242" y="622" type="curve" smooth="yes" />
      <point x="309" y="622" />
      <point x="348" y="581" />
      <point x="348" y="516" type="curve" smooth="yes" />
      <point x="348" y="497" type="line" smooth="yes" />
      <point x="348" y="430" />
      <point x="307" y="386" />
      <point x="239" y="386" type="curve" smooth="yes" />
      <point x="203" y="386" type="line" />
      <point x="203" y="318" type="line" />
      <point x="240" y="318" type="line" smooth="yes" />
      <point x="316" y="318" />
      <point x="360" y="273" />
      <point x="360" y="198" type="curve" smooth="yes" />
      <point x="360" y="174" type="line" smooth="yes" />
      <point x="360" y="101" />
      <point x="316" y="57" />
      <point x="245" y="57" type="curve" smooth="yes" />
      <point x="176" y="57" />
      <point x="134" y="94" />
      <point x="134" y="158" type="curve" smooth="yes" />
      <point x="134" y="169" type="line" />
      <point x="59" y="169" type="line" />
      <point x="59" y="155" type="line" smooth="yes" />
      <point x="59" y="53" />
      <point x="130" y="-10" />
    </contour>
  </outline>
</glyph>
<glyph name="four" format="2">
  <advance width="503" />
  <unicode hex="0034" />
  <outline>
    <contour>
      <point x="309" y="0" type="line" />
      <point x="385" y="0" type="line" />
      <point x="385" y="132" type="line" />
      <point x="460" y="132" type="line" />
      <point x="460" y="200" type="line" />
      <point x="385" y="200" type="line" />
      <point x="385" y="383" type="line" />
      <point x="309" y="383" type="line" />
      <point x="309" y="200" type="line" />
      <point x="120" y="200" type="line" />
      <point x="330" y="680" type="line" />
      <point x="254" y="680" type="line" />
      <point x="44" y="200" type="line" />
      <point x="44" y="132" type="line" />
      <point x="309" y="132" type="line" />
    </contour>
  </outline>
</glyph>
<glyph name="five" format="2">
  <advance width="487" />
  <unicode hex="0035" />
  <outline>
    <contour>
      <point x="242" y="-10" type="curve" smooth="yes" />
      <point x="356" y="-10" />
      <point x="423" y="62" />
      <point x="423" y="181" type="curve" smooth="yes" />
      <point x="423" y="249" type="line" smooth="yes" />
      <point x="423" y="372" />
      <point x="366" y="442" />
      <point x="254" y="442" type="curve" smooth="yes" />
      <point x="208" y="442" />
      <point x="167" y="425" />
      <point x="143" y="397" type="curve" />
      <point x="143" y="611" type="line" />
      <point x="411" y="611" type="line" />
      <point x="411" y="680" type="line" />
      <point x="75" y="680" type="line" />
      <point x="75" y="306" type="line" />
      <point x="142" y="306" type="line" />
      <point x="158" y="350" />
      <point x="194" y="375" />
      <point x="243" y="375" type="curve" smooth="yes" />
      <point x="314" y="375" />
      <point x="348" y="332" />
      <point x="348" y="245" type="curve" smooth="yes" />
      <point x="348" y="187" type="line" smooth="yes" />
      <point x="348" y="100" />
      <point x="313" y="58" />
      <point x="241" y="58" type="curve" smooth="yes" />
      <point x="174" y="58" />
      <point x="137" y="94" />
      <point x="137" y="156" type="curve" smooth="yes" />
      <point x="137" y="163" type="line" />
      <point x="64" y="163" type="line" />
      <point x="64" y="151" type="line" smooth="yes" />
      <point x="64" y="52" />
      <point x="130" y="-10" />
    </contour>
  </outline>
</glyph>
<glyph name="six" format="2">
  <advance width="497" />
  <unicode hex="0036" />
  <outline>
    <contour>
      <point x="249" y="-10" type="curve" smooth="yes" />
      <point x="362" y="-10" />
      <point x="441" y="63" />
      <point x="441" y="185" type="curve" smooth="yes" />
      <point x="441" y="216" type="line" smooth="yes" />
      <point x="441" y="330" />
      <point x="370" y="404" />
      <point x="266" y="404" type="curve" smooth="yes" />
      <point x="236" y="404" />
      <point x="207" y="394" />
      <point x="190" y="384" type="curve" />
      <point x="342" y="680" type="line" />
      <point x="263" y="680" type="line" />
      <point x="103" y="368" type="line" smooth="yes" />
      <point x="71" y="312" />
      <point x="57" y="265" />
      <point x="57" y="214" type="curve" smooth="yes" />
      <point x="57" y="183" type="line" smooth="yes" />
      <point x="57" y="64" />
      <point x="132" y="-10" />
    </contour>
    <contour>
      <point x="134" y="182" type="curve" smooth="yes" />
      <point x="134" y="214" type="line" smooth="yes" />
      <point x="134" y="290" />
      <point x="179" y="336" />
      <point x="249" y="336" type="curve" smooth="yes" />
      <point x="320" y="336" />
      <point x="366" y="289" />
      <point x="366" y="213" type="curve" smooth="yes" />
      <point x="366" y="181" type="line" smooth="yes" />
      <point x="366" y="105" />
      <point x="320" y="57" />
      <point x="249" y="57" type="curve" smooth="yes" />
      <point x="178" y="57" />
      <point x="134" y="105" />
    </contour>
  </outline>
</glyph>
<glyph name="seven" format="2">
  <advance width="436" />
  <unicode hex="0037" />
  <outline>
    <contour>
      <point x="92" y="0" type="line" />
      <point x="168" y="0" type="line" />
      <point x="397" y="612" type="line" />
      <point x="397" y="680" type="line" />
      <point x="38" y="680" type="line" />
      <point x="38" y="612" type="line" />
      <point x="325" y="612" type="line" />
    </contour>
  </outline>
</glyph>
<glyph name="eight" format="2">
  <advance width="515" />
  <unicode hex="0038" />
  <outline>
    <contour>
      <point x="257" y="-10" type="curve" smooth="yes" />
      <point x="371" y="-10" />
      <point x="452" y="64" />
      <point x="452" y="178" type="curve" smooth="yes" />
      <point x="452" y="201" type="line" smooth="yes" />
      <point x="452" y="269" />
      <point x="417" y="330" />
      <point x="355" y="359" type="curve" />
      <point x="406" y="384" />
      <point x="439" y="434" />
      <point x="439" y="498" type="curve" smooth="yes" />
      <point x="439" y="518" type="line" smooth="yes" />
      <point x="439" y="615" />
      <point x="366" y="690" />
      <point x="258" y="690" type="curve" smooth="yes" />
      <point x="152" y="690" />
      <point x="78" y="614" />
      <point x="78" y="518" type="curve" smooth="yes" />
      <point x="78" y="498" type="line" smooth="yes" />
      <point x="78" y="434" />
      <point x="110" y="384" />
      <point x="161" y="359" type="curve" />
      <point x="99" y="331" />
      <point x="64" y="272" />
      <point x="64" y="200" type="curve" smooth="yes" />
      <point x="64" y="177" type="line" smooth="yes" />
      <point x="64" y="66" />
      <point x="142" y="-10" />
    </contour>
    <contour>
      <point x="258" y="57" type="curve" smooth="yes" />
      <point x="186" y="57" />
      <point x="139" y="106" />
      <point x="139" y="179" type="curve" smooth="yes" />
      <point x="139" y="202" type="line" smooth="yes" />
      <point x="139" y="274" />
      <point x="186" y="323" />
      <point x="258" y="323" type="curve" smooth="yes" />
      <point x="331" y="323" />
      <point x="376" y="274" />
      <point x="376" y="202" type="curve" smooth="yes" />
      <point x="376" y="179" type="line" smooth="yes" />
      <point x="376" y="105" />
      <point x="330" y="57" />
    </contour>
    <contour>
      <point x="258" y="390" type="curve" smooth="yes" />
      <point x="193" y="390" />
      <point x="154" y="435" />
      <point x="154" y="498" type="curve" smooth="yes" />
      <point x="154" y="518" type="line" smooth="yes" />
      <point x="154" y="580" />
      <point x="195" y="622" />
      <point x="258" y="622" type="curve" smooth="yes" />
      <point x="320" y="622" />
      <point x="364" y="579" />
      <point x="364" y="518" type="curve" smooth="yes" />
      <point x="364" y="498" type="line" smooth="yes" />
      <point x="364" y="435" />
      <point x="322" y="390" />
    </contour>
  </outline>
</glyph>
<glyph name="colon" format="2">
  <advance width="237" />
  <unicode hex="003A" />
  <outline>
    <contour>
      <point x="74" y="10" type="line" />
      <point x="163" y="10" type="line" />
      <point x="163" y="103" type="line" />
      <point x="74" y="103" type="line" />
    </contour>
    <contour>
      <point x="74" y="323" type="line" />
      <point x="163" y="323" type="line" />
      <point x="163" y="417" type="line" />
      <point x="74" y="417" type="line" />
    </contour>
  </outline>
</glyph>
<glyph name="less" format="2">
  <advance width="503" />
  <unicode hex="003C" />
  <outline>
    <contour>
      <point x="448" y="82" type="line" />
      <point x="448" y="154" type="line" />
      <point x="151" y="272" type="line" />
      <point x="448" y="390" type="line" />
      <point x="448" y="462" type="line" />
      <point x="55" y="302" type="line" />
      <point x="55" y="242" type="line" />
    </contour>
  </outline>
</glyph>
<glyph name="greater" format="2">
  <advance width="503" />
  <unicode hex="003E" />
  <outline>
    <contour>
      <point x="55" y="82" type="line" />
      <point x="448" y="242" type="line" />
      <point x="448" y="302" type="line" />
      <point x="55" y="462" type="line" />
      <point x="55" y="390" type="line" />
      <point x="353" y="272" type="line" />
      <point x="55" y="154" type="line" />
    </contour>
  </outline>
</glyph>
<glyph name="question" format="2">
  <advance width="438" />
  <unicode hex="003F" />
  <outline>
    <contour>
      <point x="176" y="176" type="line" />
      <point x="251" y="176" type="line" />
      <point x="251" y="233" type="line" smooth="yes" />
      <point x="251" y="266" />
      <point x="257" y="285" />
      <point x="281" y="315" type="curve" smooth="yes" />
      <point x="340" y="391" type="line" smooth="yes" />
      <point x="375" y="440" />
      <point x="392" y="475" />
      <point x="392" y="524" type="curve" smooth="yes" />
      <point x="392" y="624" />
      <point x="324" y="690" />
      <point x="217" y="690" type="curve" smooth="yes" />
      <point x="102" y="690" />
      <point x="41" y="626" />
      <point x="40" y="516" type="curve" />
      <point x="114" y="516" type="line" />
      <point x="115" y="586" />
      <point x="148" y="621" />
      <point x="215" y="621" type="curve" smooth="yes" />
      <point x="280" y="621" />
      <point x="316" y="587" />
      <point x="316" y="524" type="curve" smooth="yes" />
      <point x="316" y="487" />
      <point x="305" y="462" />
      <point x="269" y="416" type="curve" smooth="yes" />
      <point x="216" y="347" type="line" smooth="yes" />
      <point x="183" y="307" />
      <point x="176" y="285" />
      <point x="176" y="234" type="curve" smooth="yes" />
    </contour>
    <contour>
      <point x="168" y="0" type="line" />
      <point x="259" y="0" type="line" />
      <point x="259" y="93" type="line" />
      <point x="168" y="93" type="line" />
    </contour>
  </outline>
</glyph>
<glyph name="D" format="2">
  <advance width="625" />
  <unicode hex="0044" />
  <outline>
    <contour>
      <point x="84" y="0" type="line" />
      <point x="321" y="0" type="line" smooth="yes" />
      <point x="473" y="0" />
      <point x="565" y="83" />
      <point x="565" y="266" type="curve" smooth="yes" />
      <point x="565" y="413" type="line" smooth="yes" />
      <point x="565" y="596" />
      <point x="473" y="680" />
      <point x="321" y="680" type="curve" smooth="yes" />
      <point x="84" y="680" type="line" />
    </contour>
    <contour>
      <point x="161" y="68" type="line" />
      <point x="161" y="612" type="line" />
      <point x="322" y="612" type="line" smooth="yes" />
      <point x="431" y="612" />
      <point x="490" y="550" />
      <point x="490" y="409" type="curve" smooth="yes" />
      <point x="490" y="264" type="line" smooth="yes" />
      <point x="490" y="133" />
      <point x="434" y="68" />
      <point x="322" y="68" type="curve" smooth="yes" />
    </contour>
  </outline>
</glyph>
<glyph name="G" format="2">
  <advance width="607" />
  <unicode hex="0047" />
  <outline>
    <contour>
      <point x="307" y="-8" type="curve" smooth="yes" />
      <point x="454" y="-8" />
      <point x="547" y="71" />
      <point x="547" y="247" type="curve" smooth="yes" />
      <point x="547" y="351" type="line" />
      <point x="304" y="351" type="line" />
      <point x="304" y="286" type="line" />
      <point x="471" y="286" type="line" />
      <point x="471" y="237" type="line" smooth="yes" />
      <point x="471" y="115" />
      <point x="415" y="61" />
      <point x="309" y="61" type="curve" smooth="yes" />
      <point x="192" y="61" />
      <point x="135" y="125" />
      <point x="135" y="257" type="curve" smooth="yes" />
      <point x="135" y="417" type="line" smooth="yes" />
      <point x="135" y="559" />
      <point x="193" y="620" />
      <point x="308" y="620" type="curve" smooth="yes" />
      <point x="408" y="620" />
      <point x="470" y="568" />
      <point x="470" y="481" type="curve" smooth="yes" />
      <point x="470" y="477" type="line" />
      <point x="545" y="477" type="line" />
      <point x="545" y="481" type="line" smooth="yes" />
      <point x="545" y="605" />
      <point x="450" y="689" />
      <point x="307" y="689" type="curve" smooth="yes" />
      <point x="155" y="689" />
      <point x="60" y="605" />
      <point x="60" y="420" type="curve" smooth="yes" />
      <point x="60" y="260" type="line" smooth="yes" />
      <point x="60" y="76" />
      <point x="155" y="-8" />
    </contour>
  </outline>
</glyph>
<glyph name="H" format="2">
  <advance width="644" />
  <unicode hex="0048" />
  <outline>
    <contour>
      <point x="84" y="0" type="line" />
      <point x="160" y="0" type="line" />
      <point x="160" y="314" type="line" />
      <point x="485" y="314" type="line" />
      <point x="485" y="0" type="line" />
      <point x="560" y="0" type="line" />
      <point x="560" y="680" type="line" />
      <point x="485" y="680" type="line" />
      <point x="485" y="381" type="line" />
      <point x="160" y="381" type="line" />
      <point x="160" y="680" type="line" />
      <point x="84" y="680" type="line" />
    </contour>
  </outline>
</glyph>
<glyph name="K" format="2">
  <advance width="630" />
  <unicode hex="004B" />
  <outline>
    <contour>
      <point x="84" y="0" type="line" />
      <point x="160" y="0" type="line" />
      <point x="160" y="188" type="line" />
      <point x="301" y="357" type="line" />
      <point x="514" y="0" type="line" />
      <point x="602" y="0" type="line" />
      <point x="350" y="415" type="line" />
      <point x="572" y="680" type="line" />
      <point x="480" y="680" type="line" />
      <point x="160" y="287" type="line" />
      <point x="160" y="680" type="line" />
      <point x="84" y="680" type="line" />
    </contour>
  </outline>
</glyph>
<glyph name="Q" format="2">
  <advance width="617" />
  <unicode hex="0051" />
  <anchor x="301" y="680" name="top" />
  <outline>
    <contour>
      <point x="460" y="-149" type="line" />
      <point x="518" y="-116" type="line" />
      <point x="443" y="23" type="line" />
      <point x="517" y="63" />
      <point x="554" y="142" />
      <point x="554" y="260" type="curve" smooth="yes" />
      <point x="554" y="420" type="line" smooth="yes" />
      <point x="554" y="605" />
      <point x="460" y="689" />
      <point x="310" y="689" type="curve" smooth="yes" />
      <point x="158" y="689" />
      <point x="64" y="605" />
      <point x="64" y="420" type="curve" smooth="yes" />
      <point x="64" y="260" type="line" smooth="yes" />
      <point x="64" y="75" />
      <point x="157" y="-8" />
      <point x="309" y="-8" type="curve" smooth="yes" />
      <point x="334" y="-8" />
      <point x="358" y="-6" />
      <point x="379" y="-1" type="curve" />
    </contour>
    <contour>
      <point x="139" y="257" type="curve" smooth="yes" />
      <point x="139" y="417" type="line" smooth="yes" />
      <point x="139" y="559" />
      <point x="195" y="620" />
      <point x="310" y="620" type="curve" smooth="yes" />
      <point x="423" y="620" />
      <point x="478" y="553" />
      <point x="478" y="417" type="curve" smooth="yes" />
      <point x="478" y="257" type="line" smooth="yes" />
      <point x="478" y="125" />
      <point x="422" y="61" />
      <point x="310" y="61" type="curve" smooth="yes" />
      <point x="197" y="61" />
      <point x="139" y="120" />
    </contour>
  </outline>
</glyph>
<glyph name="S" format="2">
  <advance width="573" />
  <unicode hex="0053" />
  <anchor x="279" y="680" name="top" />
  <outline>
    <contour>
      <point x="280" y="-6" type="curve" smooth="yes" />
      <point x="430" y="-6" />
      <point x="520" y="65" />
      <point x="520" y="189" type="curve" smooth="yes" />
      <point x="520" y="297" />
      <point x="456" y="355" />
      <point x="339" y="374" type="curve" smooth="yes" />
      <point x="257" y="387" type="line" smooth="yes" />
      <point x="175" y="402" />
      <point x="133" y="436" />
      <point x="133" y="503" type="curve" smooth="yes" />
      <point x="133" y="579" />
      <point x="188" y="623" />
      <point x="284" y="623" type="curve" smooth="yes" />
      <point x="378" y="623" />
      <point x="428" y="582" />
      <point x="435" y="499" type="curve" />
      <point x="435" y="476" type="line" />
      <point x="509" y="476" type="line" />
      <point x="509" y="499" type="line" />
      <point x="494" y="625" />
      <point x="412" y="689" />
      <point x="285" y="689" type="curve" smooth="yes" />
      <point x="149" y="689" />
      <point x="60" y="618" />
      <point x="60" y="497" type="curve" smooth="yes" />
      <point x="60" y="393" />
      <point x="123" y="339" />
      <point x="237" y="319" type="curve" smooth="yes" />
      <point x="317" y="308" type="line" smooth="yes" />
      <point x="404" y="293" />
      <point x="446" y="258" />
      <point x="446" y="185" type="curve" smooth="yes" />
      <point x="446" y="103" />
      <point x="390" y="60" />
      <point x="285" y="60" type="curve" smooth="yes" />
      <point x="184" y="60" />
      <point x="129" y="103" />
      <point x="121" y="192" type="curve" />
      <point x="121" y="203" type="line" />
      <point x="47" y="203" type="line" />
      <point x="47" y="192" type="line" />
      <point x="57" y="62" />
      <point x="138" y="-6" />
    </contour>
  </outline>
</glyph>
<glyph name="W" format="2">
  <advance width="839" />
  <unicode hex="0057" />
  <outline>
    <contour>
      <point x="202" y="0" type="line" />
      <point x="271" y="0" type="line" />
      <point x="420" y="586" type="line" />
      <point x="572" y="0" type="line" />
      <point x="642" y="0" type="line" />
      <point x="816" y="680" type="line" />
      <point x="745" y="680" type="line" />
      <point x="610" y="118" type="line" />
      <point x="469" y="680" type="line" />
      <point x="373" y="680" type="line" />
      <point x="238" y="118" type="line" />
      <point x="97" y="680" type="line" />
      <point x="23" y="680" type="line" />
    </contour>
  </outline>
</glyph>
<glyph name="Z" format="2">
  <advance width="545" />
  <unicode hex="005A" />
  <anchor x="265" y="680" name="top" />
  <outline>
    <contour>
      <point x="49" y="0" type="line" />
      <point x="496" y="0" type="line" />
      <point x="496" y="68" type="line" />
      <point x="136" y="68" type="line" />
      <point x="492" y="612" type="line" />
      <point x="492" y="680" type="line" />
      <point x="62" y="680" type="line" />
      <point x="62" y="612" type="line" />
      <point x="405" y="612" type="line" />
      <point x="49" y="68" type="line" />
    </contour>
  </outline>
</glyph>
<glyph name="backslash" format="2">
  <advance width="392" />
  <unicode hex="005C" />
  <outline>
    <contour>
      <point x="275" y="-10" type="line" />
      <point x="337" y="-10" type="line" />
      <point x="118" y="680" type="line" />
      <point x="57" y="680" type="line" />
    </contour>
  </outline>
</glyph>
<glyph name="bracketright" format="2">
  <advance width="296" />
  <unicode hex="005D" />
  <outline>
    <contour>
      <point x="57" y="-83" type="line" />
      <point x="218" y="-83" type="line" />
      <point x="218" y="729" type="line" />
      <point x="57" y="729" type="line" />
      <point x="57" y="661" type="line" />
      <point x="146" y="661" type="line" />
      <point x="146" y="-14" type="line" />
      <point x="57" y="-14" type="line" />
    </contour>
  </outline>
</glyph>
<glyph name="underscore" format="2">
  <advance width="465" />
  <unicode hex="005F" />
  <outline>
    <contour>
      <point x="0" y="-103" type="line" />
      <point x="466" y="-103" type="line" />
      <point x="466" y="-52" type="line" />
      <point x="0" y="-52" type="line" />
    </contour>
  </outline>
</glyph>
<glyph name="grave" format="2">
  <advance width="492" />
  <unicode hex="0060" />
  <outline>
    <contour>
      <point x="259" y="565" type="line" />
      <point x="324" y="565" type="line" />
      <point x="224" y="689" type="line" />
      <point x="136" y="689" type="line" />
    </contour>
  </outline>
</glyph>
<glyph name="a" format="2">
  <advance width="518" />
  <unicode hex="0061" />
  <anchor x="253" y="500" name="top" />
  <outline>
    <contour>
      <point x="228" y="-6" type="curve" smooth="yes" />
      <point x="294" y="-6" />
      <point x="340" y="13" />
      <point x="372" y="54" type="curve" />
      <point x="372" y="0" type="line" />
      <point x="440" y="0" type="line" />
      <point x="440" y="338" type="line" smooth="yes" />
      <point x="440" y="448" />
      <point x="375" y="507" />
      <point x="253" y="507" type="curve" smooth="yes" />
      <point x="141" y="507" />
      <point x="73" y="451" />
      <point x="73" y="365" type="curve" smooth="yes" />
      <point x="73" y="360" type="line" />
      <point x="142" y="360" type="line" />
      <point x="142" y="363" type="line" smooth="yes" />
      <point x="142" y="417" />
      <point x="184" y="448" />
      <point x="253" y="448" type="curve" smooth="yes" />
      <point x="329" y="448" />
      <point x="370" y="412" />
      <point x="370" y="338" type="curve" smooth="yes" />
      <point x="370" y="286" type="line" />
      <point x="230" y="286" type="line" smooth="yes" />
      <point x="121" y="286" />
      <point x="58" y="231" />
      <point x="58" y="141" type="curve" smooth="yes" />
      <point x="58" y="45" />
      <point x="119" y="-6" />
    </contour>
    <contour>
      <point x="128" y="142" type="curve" smooth="yes" />
      <point x="128" y="203" />
      <point x="165" y="234" />
      <point x="241" y="234" type="curve" smooth="yes" />
      <point x="370" y="234" type="line" />
      <point x="370" y="173" type="line" smooth="yes" />
      <point x="370" y="91" />
      <point x="330" y="51" />
      <point x="240" y="51" type="curve" smooth="yes" />
      <point x="165" y="51" />
      <point x="128" y="81" />
    </contour>
  </outline>
</glyph>
<glyph name="c" format="2">
  <advance width="505" />
  <unicode hex="0063" />
  <outline>
    <contour>
      <point x="259" y="-7" type="curve" smooth="yes" />
      <point x="374" y="-7" />
      <point x="449" y="59" />
      <point x="449" y="163" type="curve" smooth="yes" />
      <point x="449" y="166" type="line" />
      <point x="380" y="166" type="line" />
      <point x="380" y="163" type="line" smooth="yes" />
      <point x="380" y="94" />
      <point x="335" y="56" />
      <point x="260" y="56" type="curve" smooth="yes" />
      <point x="175" y="56" />
      <point x="127" y="99" />
      <point x="127" y="209" type="curve" smooth="yes" />
      <point x="127" y="293" type="line" smooth="yes" />
      <point x="127" y="402" />
      <point x="176" y="444" />
      <point x="261" y="444" type="curve" smooth="yes" />
      <point x="336" y="444" />
      <point x="380" y="405" />
      <point x="380" y="338" type="curve" smooth="yes" />
      <point x="380" y="333" type="line" />
      <point x="449" y="333" type="line" />
      <point x="449" y="338" type="line" smooth="yes" />
      <point x="449" y="442" />
      <point x="375" y="508" />
      <point x="258" y="508" type="curve" smooth="yes" />
      <point x="135" y="508" />
      <point x="57" y="441" />
      <point x="57" y="296" type="curve" smooth="yes" />
      <point x="57" y="205" type="line" smooth="yes" />
      <point x="57" y="61" />
      <point x="134" y="-7" />
    </contour>
  </outline>
</glyph>
<glyph name="d" format="2">
  <advance width="522" />
  <unicode hex="0064" />
  <outline>
    <contour>
      <point x="230" y="-7" type="curve" smooth="yes" />
      <point x="295" y="-7" />
      <point x="341" y="18" />
      <point x="369" y="66" type="curve" />
      <point x="369" y="0" type="line" />
      <point x="440" y="0" type="line" />
      <point x="440" y="680" type="line" />
      <point x="369" y="680" type="line" />
      <point x="369" y="431" type="line" />
      <point x="340" y="481" />
      <point x="292" y="508" />
      <point x="230" y="508" type="curve" smooth="yes" />
      <point x="125" y="508" />
      <point x="53" y="439" />
      <point x="53" y="297" type="curve" smooth="yes" />
      <point x="53" y="204" type="line" smooth="yes" />
      <point x="53" y="62" />
      <point x="125" y="-7" />
    </contour>
    <contour>
      <point x="124" y="209" type="curve" smooth="yes" />
      <point x="124" y="292" type="line" smooth="yes" />
      <point x="124" y="393" />
      <point x="164" y="444" />
      <point x="243" y="444" type="curve" smooth="yes" />
      <point x="326" y="444" />
      <point x="369" y="383" />
      <point x="369" y="290" type="curve" smooth="yes" />
      <point x="369" y="207" type="line" smooth="yes" />
      <point x="369" y="117" />
      <point x="325" y="56" />
      <point x="240" y="56" type="curve" smooth="yes" />
      <point x="164" y="56" />
      <point x="124" y="107" />
    </contour>
  </outline>
</glyph>
<glyph name="f" format="2">
  <advance width="313" />
  <unicode hex="0066" />
  <outline>
    <contour>
      <point x="106" y="0" type="line" />
      <point x="176" y="0" type="line" />
      <point x="176" y="445" type="line" />
      <point x="286" y="445" type="line" />
      <point x="286" y="500" type="line" />
      <point x="176" y="500" type="line" />
      <point x="176" y="556" type="line" smooth="yes" />
      <point x="176" y="602" />
      <point x="198" y="624" />
      <point x="244" y="624" type="curve" smooth="yes" />
      <point x="286" y="624" type="line" />
      <point x="286" y="680" type="line" />
      <point x="232" y="680" type="line" smooth="yes" />
      <point x="152" y="680" />
      <point x="106" y="632" />
      <point x="106" y="553" type="curve" smooth="yes" />
      <point x="106" y="500" type="line" />
      <point x="41" y="500" type="line" />
      <point x="41" y="445" type="line" />
      <point x="106" y="445" type="line" />
    </contour>
  </outline>
</glyph>
<glyph name="h" format="2">
  <advance width="539" />
  <unicode hex="0068" />
  <outline>
    <contour>
      <point x="82" y="0" type="line" />
      <point x="152" y="0" type="line" />
      <point x="152" y="314" type="line" smooth="yes" />
      <point x="152" y="395" />
      <point x="200" y="443" />
      <point x="274" y="443" type="curve" smooth="yes" />
      <point x="349" y="443" />
      <point x="391" y="399" />
      <point x="391" y="316" type="curve" smooth="yes" />
      <point x="391" y="0" type="line" />
      <point x="462" y="0" type="line" />
      <point x="462" y="326" type="line" smooth="yes" />
      <point x="462" y="441" />
      <point x="399" y="506" />
      <point x="292" y="506" type="curve" smooth="yes" />
      <point x="231" y="506" />
      <point x="183" y="483" />
      <point x="152" y="439" type="curve" />
      <point x="152" y="680" type="line" />
      <point x="82" y="680" type="line" />
    </contour>
  </outline>
</glyph>
<glyph name="l" format="2">
  <advance width="294" />
  <unicode hex="006C" />
  <outline>
    <contour>
      <point x="210" y="0" type="curve" smooth="yes" />
      <point x="258" y="0" type="line" />
      <point x="258" y="63" type="line" />
      <point x="218" y="63" type="line" smooth="yes" />
      <point x="171" y="63" />
      <point x="150" y="86" />
      <point x="150" y="139" type="curve" smooth="yes" />
      <point x="150" y="680" type="line" />
      <point x="80" y="680" type="line" />
      <point x="80" y="135" type="line" smooth="yes" />
      <point x="80" y="46" />
      <point x="124" y="0" />
    </contour>
  </outline>
</glyph>
<glyph name="o" format="2">
  <advance width="511" />
  <unicode hex="006F" />
  <anchor x="250" y="499" name="top" />
  <outline>
    <contour>
      <point x="257" y="-7" type="curve" smooth="yes" />
      <point x="376" y="-7" />
      <point x="454" y="61" />
      <point x="454" y="205" type="curve" smooth="yes" />
      <point x="454" y="296" type="line" smooth="yes" />
      <point x="454" y="441" />
      <point x="376" y="508" />
      <point x="257" y="508" type="curve" smooth="yes" />
      <point x="134" y="508" />
      <point x="57" y="442" />
      <point x="57" y="296" type="curve" smooth="yes" />
      <point x="57" y="205" type="line" smooth="yes" />
      <point x="57" y="61" />
      <point x="134" y="-7" />
    </contour>
    <contour>
      <point x="127" y="209" type="curve" smooth="yes" />
      <point x="127" y="293" type="line" smooth="yes" />
      <point x="127" y="402" />
      <point x="175" y="444" />
      <point x="257" y="444" type="curve" smooth="yes" />
      <point x="336" y="444" />
      <point x="384" y="402" />
      <point x="384" y="293" type="curve" smooth="yes" />
      <point x="384" y="209" type="line" smooth="yes" />
      <point x="384" y="99" />
      <point x="336" y="56" />
      <point x="257" y="56" type="curve" smooth="yes" />
      <point x="175" y="56" />
      <point x="127" y="99" />
    </contour>
  </outline>
</glyph>
<glyph name="p" format="2">
  <advance width="523" />
  <unicode hex="0070" />
  <outline>
    <contour>
      <point x="82" y="-152" type="line" />
      <point x="152" y="-152" type="line" />
      <point x="152" y="66" type="line" />
      <point x="181" y="18" />
      <point x="228" y="-7" />
      <point x="293" y="-7" type="curve" smooth="yes" />
      <point x="397" y="-7" />
      <point x="470" y="61" />
      <point x="470" y="205" type="curve" smooth="yes" />
      <point x="470" y="297" type="line" smooth="yes" />
      <point x="470" y="440" />
      <point x="396" y="507" />
      <point x="289" y="507" type="curve" smooth="yes" />
      <point x="228" y="507" />
      <point x="180" y="480" />
      <point x="152" y="431" type="curve" />
      <point x="152" y="500" type="line" />
      <point x="82" y="500" type="line" />
    </contour>
    <contour>
      <point x="152" y="207" type="curve" smooth="yes" />
      <point x="152" y="290" type="line" smooth="yes" />
      <point x="152" y="383" />
      <point x="196" y="444" />
      <point x="278" y="444" type="curve" smooth="yes" />
      <point x="358" y="444" />
      <point x="399" y="393" />
      <point x="399" y="292" type="curve" smooth="yes" />
      <point x="399" y="209" type="line" smooth="yes" />
      <point x="399" y="108" />
      <point x="359" y="56" />
      <point x="282" y="56" type="curve" smooth="yes" />
      <point x="199" y="56" />
      <point x="152" y="117" />
    </contour>
  </outline>
</glyph>
<glyph name="r" format="2">
  <advance width="339" />
  <unicode hex="0072" />
  <outline>
    <contour>
      <point x="82" y="0" type="line" />
      <point x="152" y="0" type="line" />
      <point x="152" y="312" type="line" smooth="yes" />
      <point x="152" y="391" />
      <point x="202" y="442" />
      <point x="274" y="442" type="curve" smooth="yes" />
      <point x="292" y="442" />
      <point x="309" y="440" />
      <point x="326" y="435" type="curve" />
      <point x="326" y="504" type="line" />
      <point x="314" y="506" />
      <point x="301" y="507" />
      <point x="289" y="507" type="curve" smooth="yes" />
      <point x="230" y="507" />
      <point x="179" y="483" />
      <point x="151" y="433" type="curve" />
      <point x="151" y="500" type="line" />
      <point x="82" y="500" type="line" />
    </contour>
  </outline>
</glyph>
<glyph name="t" format="2">
  <advance width="351" />
  <unicode hex="0074" />
  <outline>
    <contour>
      <point x="243" y="0" type="curve" smooth="yes" />
      <point x="294" y="0" type="line" />
      <point x="294" y="62" type="line" />
      <point x="254" y="62" type="line" smooth="yes" />
      <point x="209" y="62" />
      <point x="187" y="84" />
      <point x="187" y="132" type="curve" smooth="yes" />
      <point x="187" y="445" type="line" />
      <point x="303" y="445" type="line" />
      <point x="303" y="500" type="line" />
      <point x="187" y="500" type="line" />
      <point x="187" y="646" type="line" />
      <point x="117" y="614" type="line" />
      <point x="117" y="500" type="line" />
      <point x="36" y="500" type="line" />
      <point x="36" y="445" type="line" />
      <point x="117" y="445" type="line" />
      <point x="117" y="128" type="line" smooth="yes" />
      <point x="117" y="47" />
      <point x="162" y="0" />
    </contour>
  </outline>
</glyph>
<glyph name="u" format="2">
  <advance width="537"/>
  <unicode hex="0075"/>
  <anchor x="258" y="499" name="top"/>
  <outline>
    <contour>
      <point x="455" y="500" type="line"/>
      <point x="385" y="500" type="line"/>
      <point x="385" y="186" type="line" smooth="yes"/>
      <point x="385" y="105"/>
      <point x="337" y="57"/>
      <point x="263" y="57" type="curve" smooth="yes"/>
      <point x="188" y="57"/>
      <point x="146" y="101"/>
      <point x="146" y="184" type="curve" smooth="yes"/>
      <point x="146" y="500" type="line"/>
      <point x="75" y="500" type="line"/>
      <point x="75" y="174" type="line" smooth="yes"/>
      <point x="75" y="60"/>
      <point x="136" y="-6"/>
      <point x="245" y="-6" type="curve" smooth="yes"/>
      <point x="305" y="-6"/>
      <point x="356" y="17"/>
      <point x="386" y="61" type="curve"/>
      <point x="386" y="0" type="line"/>
      <point x="455" y="0" type="line"/>
    </contour>
  </outline>
</glyph>
<glyph name="w" format="2">
  <advance width="758" />
  <unicode hex="0077" />
  <outline>
    <contour>
      <point x="186" y="0" type="line" />
      <point x="251" y="0" type="line" />
      <point x="379" y="399" type="line" />
      <point x="507" y="0" type="line" />
      <point x="571" y="0" type="line" />
      <point x="728" y="500" type="line" />
      <point x="651" y="500" type="line" />
      <point x="535" y="101" type="line" />
      <point x="408" y="500" type="line" />
      <point x="350" y="500" type="line" />
      <point x="223" y="101" type="line" />
      <point x="106" y="500" type="line" />
      <point x="30" y="500" type="line" />
    </contour>
  </outline>
</glyph>
<glyph name="x" format="2">
  <advance width="458" />
  <unicode hex="0078" />
  <outline>
    <contour>
      <point x="28" y="0" type="line" />
      <point x="103" y="0" type="line" />
      <point x="229" y="199" type="line" />
      <point x="354" y="0" type="line" />
      <point x="430" y="0" type="line" />
      <point x="265" y="261" type="line" />
      <point x="419" y="500" type="line" />
      <point x="344" y="500" type="line" />
      <point x="230" y="316" type="line" />
      <point x="113" y="500" type="line" />
      <point x="39" y="500" type="line" />
      <point x="191" y="257" type="line" />
    </contour>
  </outline>
</glyph>
<glyph name="y" format="2">
  <advance width="468" />
  <unicode hex="0079" />
  <anchor x="227" y="499" name="top" />
  <outline>
    <contour>
      <point x="79" y="-150" type="line" />
      <point x="109" y="-150" type="line" smooth="yes" />
      <point x="180" y="-150" />
      <point x="224" y="-121" />
      <point x="248" y="-53" type="curve" smooth="yes" />
      <point x="444" y="500" type="line" />
      <point x="371" y="500" type="line" />
      <point x="236" y="103" type="line" />
      <point x="100" y="500" type="line" />
      <point x="24" y="500" type="line" />
      <point x="202" y="4" type="line" />
      <point x="193" y="-24" type="line" smooth="yes" />
      <point x="177" y="-68" />
      <point x="156" y="-86" />
      <point x="105" y="-86" type="curve" smooth="yes" />
      <point x="79" y="-86" type="line" />
    </contour>
  </outline>
</glyph>
<glyph name="asciitilde" format="2">
  <advance width="503" />
  <unicode hex="007E" />
  <outline>
    <contour>
      <point x="95" y="212" type="line" />
      <point x="122" y="256" />
      <point x="139" y="270" />
      <point x="170" y="270" type="curve" smooth="yes" />
      <point x="193" y="270" />
      <point x="209" y="261" />
      <point x="240" y="242" type="curve" smooth="yes" />
      <point x="274" y="219" />
      <point x="298" y="208" />
      <point x="331" y="208" type="curve" smooth="yes" />
      <point x="383" y="208" />
      <point x="428" y="240" />
      <point x="457" y="300" type="curve" />
      <point x="407" y="332" type="line" />
      <point x="382" y="288" />
      <point x="362" y="273" />
      <point x="331" y="273" type="curve" smooth="yes" />
      <point x="309" y="273" />
      <point x="293" y="281" />
      <point x="263" y="300" type="curve" smooth="yes" />
      <point x="226" y="323" />
      <point x="204" y="335" />
      <point x="171" y="335" type="curve" smooth="yes" />
      <point x="118" y="335" />
      <point x="73" y="303" />
      <point x="45" y="242" type="curve" />
    </contour>
  </outline>
</glyph>
<glyph name="currency" format="2">
  <advance width="602" />
  <unicode hex="00A4" />
  <outline>
    <contour>
      <point x="118" y="92" type="line" />
      <point x="189" y="162" type="line" />
      <point x="221" y="139" />
      <point x="259" y="127" />
      <point x="300" y="127" type="curve" smooth="yes" />
      <point x="342" y="127" />
      <point x="380" y="139" />
      <point x="413" y="162" type="curve" />
      <point x="482" y="92" type="line" />
      <point x="530" y="140" type="line" />
      <point x="460" y="210" type="line" />
      <point x="484" y="242" />
      <point x="495" y="280" />
      <point x="495" y="321" type="curve" smooth="yes" />
      <point x="495" y="363" />
      <point x="484" y="400" />
      <point x="460" y="434" type="curve" />
      <point x="529" y="502" type="line" />
      <point x="481" y="550" type="line" />
      <point x="412" y="482" type="line" />
      <point x="380" y="505" />
      <point x="342" y="517" />
      <point x="300" y="517" type="curve" smooth="yes" />
      <point x="259" y="517" />
      <point x="221" y="505" />
      <point x="189" y="482" type="curve" />
      <point x="119" y="550" type="line" />
      <point x="72" y="502" type="line" />
      <point x="140" y="433" type="line" />
      <point x="117" y="402" />
      <point x="107" y="364" />
      <point x="107" y="321" type="curve" smooth="yes" />
      <point x="107" y="281" />
      <point x="117" y="243" />
      <point x="139" y="210" type="curve" />
      <point x="71" y="140" type="line" />
    </contour>
    <contour>
      <point x="300" y="189" type="curve" smooth="yes" />
      <point x="226" y="189" />
      <point x="171" y="245" />
      <point x="171" y="321" type="curve" smooth="yes" />
      <point x="171" y="397" />
      <point x="226" y="453" />
      <point x="300" y="453" type="curve" smooth="yes" />
      <point x="374" y="453" />
      <point x="430" y="397" />
      <point x="430" y="321" type="curve" smooth="yes" />
      <point x="430" y="245" />
      <point x="374" y="189" />
    </contour>
  </outline>
</glyph>
<glyph name="yen" format="2">
  <advance width="462" />
  <unicode hex="00A5" />
  <outline>
    <contour>
      <point x="194" y="0" type="line" />
      <point x="269" y="0" type="line" />
      <point x="269" y="150" type="line" />
      <point x="413" y="150" type="line" />
      <point x="413" y="208" type="line" />
      <point x="269" y="208" type="line" />
      <point x="269" y="273" type="line" />
      <point x="413" y="273" type="line" />
      <point x="413" y="331" type="line" />
      <point x="289" y="331" type="line" />
      <point x="453" y="680" type="line" />
      <point x="369" y="680" type="line" />
      <point x="232" y="363" type="line" />
      <point x="94" y="680" type="line" />
      <point x="10" y="680" type="line" />
      <point x="175" y="331" type="line" />
      <point x="50" y="331" type="line" />
      <point x="50" y="273" type="line" />
      <point x="194" y="273" type="line" />
      <point x="194" y="208" type="line" />
      <point x="50" y="208" type="line" />
      <point x="50" y="150" type="line" />
      <point x="194" y="150" type="line" />
    </contour>
  </outline>
</glyph>
<glyph name="copyright" format="2">
  <advance width="804" />
  <unicode hex="00A9" />
  <outline>
    <contour>
      <point x="406" y="146" type="curve" smooth="yes" />
      <point x="492" y="146" />
      <point x="547" y="193" />
      <point x="547" y="271" type="curve" smooth="yes" />
      <point x="547" y="276" type="line" />
      <point x="493" y="276" type="line" />
      <point x="493" y="272" type="line" smooth="yes" />
      <point x="493" y="224" />
      <point x="461" y="195" />
      <point x="408" y="195" type="curve" smooth="yes" />
      <point x="346" y="195" />
      <point x="312" y="225" />
      <point x="312" y="306" type="curve" smooth="yes" />
      <point x="312" y="369" type="line" smooth="yes" />
      <point x="312" y="449" />
      <point x="346" y="479" />
      <point x="408" y="479" type="curve" smooth="yes" />
      <point x="461" y="479" />
      <point x="493" y="452" />
      <point x="493" y="402" type="curve" smooth="yes" />
      <point x="493" y="399" type="line" />
      <point x="547" y="399" type="line" />
      <point x="547" y="404" type="line" smooth="yes" />
      <point x="547" y="482" />
      <point x="493" y="529" />
      <point x="406" y="529" type="curve" smooth="yes" />
      <point x="315" y="529" />
      <point x="256" y="480" />
      <point x="256" y="371" type="curve" smooth="yes" />
      <point x="256" y="303" type="line" smooth="yes" />
      <point x="256" y="194" />
      <point x="315" y="146" />
    </contour>
    <contour>
      <point x="403" y="-10" type="curve" smooth="yes" />
      <point x="602" y="-10" />
      <point x="742" y="133" />
      <point x="742" y="335" type="curve" smooth="yes" />
      <point x="742" y="538" />
      <point x="602" y="680" />
      <point x="403" y="680" type="curve" smooth="yes" />
      <point x="203" y="680" />
      <point x="64" y="537" />
      <point x="64" y="335" type="curve" smooth="yes" />
      <point x="64" y="133" />
      <point x="204" y="-10" />
    </contour>
    <contour>
      <point x="403" y="43" type="curve" smooth="yes" />
      <point x="234" y="43" />
      <point x="121" y="160" />
      <point x="121" y="335" type="curve" smooth="yes" />
      <point x="121" y="510" />
      <point x="234" y="626" />
      <point x="403" y="626" type="curve" smooth="yes" />
      <point x="572" y="626" />
      <point x="684" y="510" />
      <point x="684" y="335" type="curve" smooth="yes" />
      <point x="684" y="160" />
      <point x="571" y="43" />
    </contour>
  </outline>
</glyph>
<glyph name="ordfeminine" format="2">
  <advance width="335" />
  <unicode hex="00AA" />
  <outline>
    <contour>
      <point x="139" y="419" type="curve" smooth="yes" />
      <point x="175" y="419" />
      <point x="200" y="431" />
      <point x="220" y="454" type="curve" />
      <point x="220" y="423" type="line" />
      <point x="283" y="423" type="line" />
      <point x="283" y="629" type="line" smooth="yes" />
      <point x="283" y="700" />
      <point x="240" y="737" />
      <point x="161" y="737" type="curve" smooth="yes" />
      <point x="88" y="737" />
      <point x="44" y="701" />
      <point x="44" y="644" type="curve" smooth="yes" />
      <point x="44" y="643" type="line" />
      <point x="104" y="643" type="line" />
      <point x="104" y="644" type="line" smooth="yes" />
      <point x="104" y="670" />
      <point x="124" y="688" />
      <point x="161" y="688" type="curve" smooth="yes" />
      <point x="198" y="688" />
      <point x="218" y="668" />
      <point x="218" y="632" type="curve" smooth="yes" />
      <point x="218" y="604" type="line" />
      <point x="144" y="604" type="line" smooth="yes" />
      <point x="77" y="604" />
      <point x="37" y="572" />
      <point x="37" y="516" type="curve" smooth="yes" />
      <point x="37" y="456" />
      <point x="74" y="419" />
    </contour>
    <contour>
      <point x="98" y="517" type="curve" smooth="yes" />
      <point x="98" y="545" />
      <point x="117" y="560" />
      <point x="154" y="560" type="curve" smooth="yes" />
      <point x="218" y="560" type="line" />
      <point x="218" y="534" type="line" smooth="yes" />
      <point x="218" y="492" />
      <point x="199" y="472" />
      <point x="153" y="472" type="curve" smooth="yes" />
      <point x="117" y="472" />
      <point x="98" y="488" />
    </contour>
  </outline>
</glyph>
<glyph name="degree" format="2">
  <advance width="402" />
  <unicode hex="00B0" />
  <outline>
    <contour>
      <point x="202" y="414" type="curve" smooth="yes" />
      <point x="279" y="414" />
      <point x="339" y="472" />
      <point x="339" y="551" type="curve" smooth="yes" />
      <point x="339" y="630" />
      <point x="279" y="690" />
      <point x="202" y="690" type="curve" smooth="yes" />
      <point x="121" y="690" />
      <point x="64" y="630" />
      <point x="64" y="551" type="curve" smooth="yes" />
      <point x="64" y="472" />
      <point x="121" y="414" />
    </contour>
    <contour>
      <point x="116" y="551" type="curve" smooth="yes" />
      <point x="116" y="602" />
      <point x="151" y="641" />
      <point x="202" y="641" type="curve" smooth="yes" />
      <point x="251" y="641" />
      <point x="288" y="602" />
      <point x="288" y="551" type="curve" smooth="yes" />
      <point x="288" y="500" />
      <point x="251" y="463" />
      <point x="202" y="463" type="curve" smooth="yes" />
      <point x="151" y="463" />
      <point x="116" y="500" />
    </contour>
  </outline>
</glyph>
<glyph name="plusminus" format="2">
  <advance width="503" />
  <unicode hex="00B1" />
  <outline>
    <contour>
      <point x="217" y="75" type="line" />
      <point x="286" y="75" type="line" />
      <point x="286" y="239" type="line" />
      <point x="448" y="239" type="line" />
      <point x="448" y="306" type="line" />
      <point x="286" y="306" type="line" />
      <point x="286" y="468" type="line" />
      <point x="217" y="468" type="line" />
      <point x="217" y="306" type="line" />
      <point x="55" y="306" type="line" />
      <point x="55" y="239" type="line" />
      <point x="217" y="239" type="line" />
    </contour>
    <contour>
      <point x="55" y="-42" type="line" />
      <point x="448" y="-42" type="line" />
      <point x="448" y="25" type="line" />
      <point x="55" y="25" type="line" />
    </contour>
  </outline>
</glyph>
<glyph name="mu" format="2">
  <advance width="518" />
  <unicode hex="00B5" />
  <outline>
    <contour>
      <point x="72" y="-150" type="line" />
      <point x="142" y="-150" type="line" />
      <point x="142" y="31" type="line" />
      <point x="166" y="5" />
      <point x="201" y="-8" />
      <point x="244" y="-8" type="curve" smooth="yes" />
      <point x="302" y="-8" />
      <point x="347" y="15" />
      <point x="376" y="60" type="curve" />
      <point x="376" y="0" type="line" />
      <point x="446" y="0" type="line" />
      <point x="446" y="500" type="line" />
      <point x="375" y="500" type="line" />
      <point x="375" y="183" type="line" smooth="yes" />
      <point x="375" y="103" />
      <point x="325" y="56" />
      <point x="257" y="56" type="curve" smooth="yes" />
      <point x="187" y="56" />
      <point x="142" y="98" />
      <point x="142" y="179" type="curve" smooth="yes" />
      <point x="142" y="500" type="line" />
      <point x="72" y="500" type="line" />
    </contour>
  </outline>
</glyph>
<glyph name="paragraph" format="2">
  <advance width="617" />
  <unicode hex="00B6" />
  <outline>
    <contour>
      <point x="275" y="-150" type="line" />
      <point x="343" y="-150" type="line" />
      <point x="343" y="614" type="line" />
      <point x="433" y="614" type="line" />
      <point x="433" y="-150" type="line" />
      <point x="501" y="-150" type="line" />
      <point x="501" y="680" type="line" />
      <point x="294" y="680" type="line" smooth="yes" />
      <point x="160" y="680" />
      <point x="77" y="593" />
      <point x="77" y="473" type="curve" smooth="yes" />
      <point x="77" y="357" />
      <point x="153" y="274" />
      <point x="275" y="267" type="curve" />
    </contour>
  </outline>
</glyph>
<glyph name="guillemotright" format="2">
  <advance width="485" />
  <unicode hex="00BB" />
  <outline>
    <contour>
      <point x="72" y="63" type="line" />
      <point x="271" y="260" type="line" />
      <point x="72" y="456" type="line" />
      <point x="72" y="373" type="line" />
      <point x="188" y="260" type="line" />
      <point x="72" y="147" type="line" />
    </contour>
    <contour>
      <point x="261" y="63" type="line" />
      <point x="462" y="260" type="line" />
      <point x="261" y="456" type="line" />
      <point x="261" y="373" type="line" />
      <point x="377" y="260" type="line" />
      <point x="261" y="147" type="line" />
    </contour>
  </outline>
</glyph>
<glyph name="Eth" format="2">
  <advance width="669" />
  <unicode hex="00D0" />
  <outline>
    <contour>
      <point x="125" y="0" type="line" />
      <point x="361" y="0" type="line" smooth="yes" />
      <point x="513" y="0" />
      <point x="606" y="83" />
      <point x="606" y="266" type="curve" smooth="yes" />
      <point x="606" y="413" type="line" smooth="yes" />
      <point x="606" y="596" />
      <point x="513" y="680" />
      <point x="362" y="680" type="curve" smooth="yes" />
      <point x="125" y="680" type="line" />
      <point x="125" y="378" type="line" />
      <point x="37" y="378" type="line" />
      <point x="37" y="311" type="line" />
      <point x="125" y="311" type="line" />
    </contour>
    <contour>
      <point x="201" y="68" type="line" />
      <point x="201" y="311" type="line" />
      <point x="345" y="311" type="line" />
      <point x="345" y="378" type="line" />
      <point x="201" y="378" type="line" />
      <point x="201" y="612" type="line" />
      <point x="363" y="612" type="line" smooth="yes" />
      <point x="471" y="612" />
      <point x="530" y="550" />
      <point x="530" y="409" type="curve" smooth="yes" />
      <point x="530" y="264" type="line" smooth="yes" />
      <point x="530" y="133" />
      <point x="474" y="68" />
      <point x="363" y="68" type="curve" smooth="yes" />
    </contour>
  </outline>
</glyph>
<glyph name="multiply" format="2">
  <advance width="503" />
  <unicode hex="00D7" />
  <outline>
    <contour>
      <point x="131" y="106" type="line" />
      <point x="252" y="227" type="line" />
      <point x="372" y="106" type="line" />
      <point x="418" y="152" type="line" />
      <point x="298" y="273" type="line" />
      <point x="418" y="393" type="line" />
      <point x="372" y="439" type="line" />
      <point x="252" y="318" type="line" />
      <point x="131" y="439" type="line" />
      <point x="86" y="393" type="line" />
      <point x="207" y="273" type="line" />
      <point x="86" y="152" type="line" />
    </contour>
  </outline>
</glyph>
<glyph name="Thorn" format="2">
  <advance width="579" />
  <unicode hex="00DE" />
  <outline>
    <contour>
      <point x="77" y="0" type="line" />
      <point x="153" y="0" type="line" />
      <point x="153" y="156" type="line" />
      <point x="323" y="156" type="line" smooth="yes" />
      <point x="459" y="156" />
      <point x="542" y="230" />
      <point x="542" y="354" type="curve" smooth="yes" />
      <point x="542" y="485" />
      <point x="460" y="557" />
      <point x="323" y="557" type="curve" smooth="yes" />
      <point x="153" y="557" type="line" />
      <point x="153" y="680" type="line" />
      <point x="77" y="680" type="line" />
    </contour>
    <contour>
      <point x="153" y="223" type="line" />
      <point x="153" y="490" type="line" />
      <point x="317" y="490" type="line" smooth="yes" />
      <point x="414" y="490" />
      <point x="466" y="445" />
      <point x="466" y="353" type="curve" smooth="yes" />
      <point x="466" y="265" />
      <point x="414" y="223" />
      <point x="318" y="223" type="curve" smooth="yes" />
    </contour>
  </outline>
</glyph>
<glyph name="germandbls" format="2">
  <advance width="508" />
  <unicode hex="00DF" />
  <outline>
    <contour>
      <point x="252" y="-4" type="line" />
      <point x="283" y="-4" type="line" smooth="yes" />
      <point x="422" y="-4" />
      <point x="452" y="48" />
      <point x="452" y="222" type="curve" smooth="yes" />
      <point x="452" y="349" />
      <point x="441" y="391" />
      <point x="378" y="419" type="curve" />
      <point x="422" y="442" />
      <point x="443" y="477" />
      <point x="443" y="535" type="curve" smooth="yes" />
      <point x="443" y="632" />
      <point x="377" y="687" />
      <point x="260" y="687" type="curve" smooth="yes" />
      <point x="128" y="687" />
      <point x="72" y="621" />
      <point x="72" y="495" type="curve" smooth="yes" />
      <point x="72" y="0" type="line" />
      <point x="142" y="0" type="line" />
      <point x="142" y="504" type="line" smooth="yes" />
      <point x="142" y="588" />
      <point x="179" y="622" />
      <point x="261" y="622" type="curve" smooth="yes" />
      <point x="337" y="622" />
      <point x="372" y="594" />
      <point x="372" y="534" type="curve" smooth="yes" />
      <point x="372" y="475" />
      <point x="344" y="448" />
      <point x="279" y="448" type="curve" smooth="yes" />
      <point x="251" y="448" type="line" />
      <point x="251" y="385" type="line" />
      <point x="273" y="385" type="line" smooth="yes" />
      <point x="369" y="385" />
      <point x="380" y="351" />
      <point x="380" y="221" type="curve" smooth="yes" />
      <point x="380" y="88" />
      <point x="368" y="60" />
      <point x="279" y="60" type="curve" smooth="yes" />
      <point x="252" y="60" type="line" />
    </contour>
  </outline>
</glyph>
<glyph name="ae" format="2">
  <advance width="806" />
  <unicode hex="00E6" />
  <outline>
    <contour>
      <point x="222" y="-6" type="curve" smooth="yes" />
      <point x="302" y="-6" />
      <point x="360" y="21" />
      <point x="394" y="74" type="curve" />
      <point x="430" y="18" />
      <point x="488" y="-7" />
      <point x="563" y="-7" type="curve" smooth="yes" />
      <point x="677" y="-7" />
      <point x="745" y="61" />
      <point x="746" y="151" type="curve" smooth="yes" />
      <point x="746" y="156" type="line" />
      <point x="677" y="156" type="line" />
      <point x="677" y="153" type="line" smooth="yes" />
      <point x="677" y="93" />
      <point x="633" y="56" />
      <point x="562" y="56" type="curve" smooth="yes" />
      <point x="477" y="56" />
      <point x="427" y="98" />
      <point x="427" y="211" type="curve" smooth="yes" />
      <point x="427" y="236" type="line" />
      <point x="749" y="236" type="line" />
      <point x="749" y="294" type="line" smooth="yes" />
      <point x="749" y="438" />
      <point x="672" y="508" />
      <point x="554" y="508" type="curve" smooth="yes" />
      <point x="485" y="508" />
      <point x="433" y="486" />
      <point x="399" y="441" type="curve" />
      <point x="367" y="486" />
      <point x="315" y="507" />
      <point x="240" y="507" type="curve" smooth="yes" />
      <point x="128" y="507" />
      <point x="60" y="451" />
      <point x="60" y="365" type="curve" smooth="yes" />
      <point x="60" y="360" type="line" />
      <point x="129" y="360" type="line" />
      <point x="129" y="363" type="line" smooth="yes" />
      <point x="129" y="417" />
      <point x="171" y="448" />
      <point x="240" y="448" type="curve" smooth="yes" />
      <point x="316" y="448" />
      <point x="357" y="412" />
      <point x="357" y="338" type="curve" smooth="yes" />
      <point x="357" y="286" type="line" />
      <point x="217" y="286" type="line" smooth="yes" />
      <point x="108" y="286" />
      <point x="45" y="232" />
      <point x="45" y="141" type="curve" smooth="yes" />
      <point x="45" y="47" />
      <point x="113" y="-6" />
    </contour>
    <contour>
      <point x="115" y="142" type="curve" smooth="yes" />
      <point x="115" y="204" />
      <point x="153" y="234" />
      <point x="228" y="234" type="curve" smooth="yes" />
      <point x="357" y="234" type="line" />
      <point x="357" y="178" type="line" smooth="yes" />
      <point x="357" y="93" />
      <point x="314" y="51" />
      <point x="228" y="51" type="curve" smooth="yes" />
      <point x="153" y="51" />
      <point x="115" y="82" />
    </contour>
    <contour>
      <point x="427" y="289" type="line" />
      <point x="427" y="297" type="line" smooth="yes" />
      <point x="427" y="404" />
      <point x="476" y="444" />
      <point x="554" y="444" type="curve" smooth="yes" />
      <point x="634" y="444" />
      <point x="678" y="406" />
      <point x="678" y="304" type="curve" smooth="yes" />
      <point x="678" y="289" type="line" />
    </contour>
  </outline>
</glyph>
<glyph name="eth" format="2">
  <advance width="498" />
  <unicode hex="00F0" />
  <outline>
    <contour>
      <point x="248" y="-9" type="curve" smooth="yes" />
      <point x="371" y="-9" />
      <point x="442" y="65" />
      <point x="442" y="211" type="curve" smooth="yes" />
      <point x="442" y="259" type="line" smooth="yes" />
      <point x="442" y="340" />
      <point x="417" y="411" />
      <point x="362" y="485" type="curve" smooth="yes" />
      <point x="303" y="565" type="line" />
      <point x="384" y="589" type="line" />
      <point x="369" y="644" type="line" />
      <point x="266" y="613" type="line" />
      <point x="216" y="680" type="line" />
      <point x="132" y="680" type="line" />
      <point x="197" y="592" type="line" />
      <point x="114" y="568" type="line" />
      <point x="130" y="514" type="line" />
      <point x="234" y="543" type="line" />
      <point x="301" y="453" type="line" />
      <point x="282" y="463" />
      <point x="260" y="467" />
      <point x="234" y="467" type="curve" smooth="yes" />
      <point x="123" y="467" />
      <point x="57" y="391" />
      <point x="57" y="255" type="curve" smooth="yes" />
      <point x="57" y="206" type="line" smooth="yes" />
      <point x="57" y="67" />
      <point x="127" y="-9" />
    </contour>
    <contour>
      <point x="127" y="206" type="curve" smooth="yes" />
      <point x="127" y="257" type="line" smooth="yes" />
      <point x="127" y="352" />
      <point x="168" y="402" />
      <point x="250" y="402" type="curve" smooth="yes" />
      <point x="331" y="402" />
      <point x="371" y="353" />
      <point x="371" y="255" type="curve" smooth="yes" />
      <point x="371" y="206" type="line" smooth="yes" />
      <point x="371" y="107" />
      <point x="330" y="57" />
      <point x="250" y="57" type="curve" smooth="yes" />
      <point x="168" y="57" />
      <point x="127" y="108" />
    </contour>
  </outline>
</glyph>
<glyph name="oslash" format="2">
  <advance width="511" />
  <unicode hex="00F8" />
  <outline>
    <component base="o" />
    <contour>
      <point x="58" y="-30" type="line" />
      <point x="105" y="-30" type="line" />
      <point x="452" y="526" type="line" />
      <point x="405" y="526" type="line" />
    </contour>
  </outline>
</glyph>
<glyph name="thorn" format="2">
  <advance width="516" />
  <unicode hex="00FE" />
  <outline>
    <contour>
      <point x="72" y="-150" type="line" />
      <point x="142" y="-150" type="line" />
      <point x="142" y="66" type="line" />
      <point x="171" y="18" />
      <point x="218" y="-7" />
      <point x="283" y="-7" type="curve" smooth="yes" />
      <point x="387" y="-7" />
      <point x="460" y="62" />
      <point x="460" y="205" type="curve" smooth="yes" />
      <point x="460" y="297" type="line" smooth="yes" />
      <point x="460" y="439" />
      <point x="386" y="508" />
      <point x="279" y="508" type="curve" smooth="yes" />
      <point x="218" y="508" />
      <point x="170" y="480" />
      <point x="142" y="431" type="curve" />
      <point x="142" y="680" type="line" />
      <point x="72" y="680" type="line" />
    </contour>
    <contour>
      <point x="142" y="207" type="curve" smooth="yes" />
      <point x="142" y="290" type="line" smooth="yes" />
      <point x="142" y="383" />
      <point x="186" y="444" />
      <point x="268" y="444" type="curve" smooth="yes" />
      <point x="348" y="444" />
      <point x="389" y="393" />
      <point x="389" y="293" type="curve" smooth="yes" />
      <point x="389" y="209" type="line" smooth="yes" />
      <point x="389" y="108" />
      <point x="349" y="56" />
      <point x="272" y="56" type="curve" smooth="yes" />
      <point x="189" y="56" />
      <point x="142" y="117" />
    </contour>
  </outline>
</glyph>
<glyph name="dcroat" format="2">
  <advance width="522" />
  <unicode hex="0111" />
  <outline>
    <component base="d" />
    <contour>
      <point x="252" y="567" type="line" />
      <point x="517" y="567" type="line" />
      <point x="517" y="612" type="line" />
      <point x="252" y="612" type="line" />
    </contour>
  </outline>
</glyph>
<glyph name="eogonek" format="2">
  <advance width="506" />
  <unicode hex="0119" />
  <outline>
    <component base="e" />
    <contour>
      <point x="407" y="-209" type="curve" />
      <point x="407" y="-144" type="line" />
      <point x="353" y="-144" />
      <point x="321" y="-139" />
      <point x="289" y="-96" type="curve" />
      <point x="410" y="59" type="line" />
      <point x="321" y="13" type="line" />
      <point x="214" y="-88" type="line" />
      <point x="223" y="-115" />
      <point x="237" y="-139" />
      <point x="257" y="-156" type="curve" smooth="yes" />
      <point x="294" y="-190" />
      <point x="332" y="-208" />
    </contour>
  </outline>
</glyph>
<glyph name="Hbar" format="2">
  <advance width="644" />
  <unicode hex="0126" />
  <outline>
    <component base="H" />
    <contour>
      <point x="39" y="485" type="line" />
      <point x="590" y="485" type="line" />
      <point x="590" y="552" type="line" />
      <point x="39" y="552" type="line" />
    </contour>
  </outline>
</glyph>
<glyph name="hbar" format="2">
  <advance width="539" />
  <unicode hex="0127" />
  <outline>
    <component base="h" />
    <contour>
      <point x="14" y="562" type="line" />
      <point x="293" y="562" type="line" />
      <point x="293" y="618" type="line" />
      <point x="14" y="618" type="line" />
    </contour>
  </outline>
</glyph>
<glyph name="IJ" format="2">
  <advance width="637" />
  <unicode hex="0132" />
  <outline>
    <contour>
      <point x="319" y="-6" type="curve" smooth="yes" />
      <point x="459" y="-6" />
      <point x="559" y="88" />
      <point x="559" y="226" type="curve" smooth="yes" />
      <point x="559" y="680" type="line" />
      <point x="485" y="680" type="line" />
      <point x="485" y="232" type="line" smooth="yes" />
      <point x="484" y="126" />
      <point x="421" y="61" />
      <point x="319" y="61" type="curve" smooth="yes" />
      <point x="234" y="61" />
      <point x="191" y="96" />
      <point x="167" y="153" type="curve" />
      <point x="88" y="153" type="line" />
      <point x="115" y="56" />
      <point x="206" y="-6" />
    </contour>
    <contour>
      <point x="77" y="332" type="line" />
      <point x="154" y="332" type="line" />
      <point x="154" y="680" type="line" />
      <point x="77" y="680" type="line" />
    </contour>
  </outline>
</glyph>
<glyph name="Lslash" format="2">
  <advance width="532" />
  <unicode hex="0141" />
  <outline>
    <component base="L" />
    <contour>
      <point x="44" y="318" type="line" />
      <point x="260" y="403" type="line" />
      <point x="260" y="467" type="line" />
      <point x="45" y="383" type="line" />
    </contour>
  </outline>
</glyph>
<glyph name="lslash" format="2">
  <advance width="294" />
  <unicode hex="0142" />
  <outline>
    <component base="l" />
    <contour>
      <point x="21" y="323" type="line" />
      <point x="212" y="404" type="line" />
      <point x="212" y="470" type="line" />
      <point x="22" y="389" type="line" />
    </contour>
  </outline>
</glyph>
<glyph name="OE" format="2">
  <advance width="912" />
  <unicode hex="0152" />
  <outline>
    <contour>
      <point x="307" y="-8" type="curve" smooth="yes" />
      <point x="379" y="-8" />
      <point x="437" y="12" />
      <point x="479" y="50" type="curve" />
      <point x="479" y="0" type="line" />
      <point x="866" y="0" type="line" />
      <point x="866" y="68" type="line" />
      <point x="553" y="68" type="line" />
      <point x="554" y="312" type="line" />
      <point x="815" y="312" type="line" />
      <point x="815" y="379" type="line" />
      <point x="554" y="379" type="line" />
      <point x="553" y="612" type="line" />
      <point x="866" y="612" type="line" />
      <point x="866" y="680" type="line" />
      <point x="479" y="680" type="line" />
      <point x="479" y="630" type="line" />
      <point x="438" y="669" />
      <point x="381" y="689" />
      <point x="309" y="689" type="curve" smooth="yes" />
      <point x="157" y="689" />
      <point x="64" y="605" />
      <point x="64" y="420" type="curve" smooth="yes" />
      <point x="64" y="260" type="line" smooth="yes" />
      <point x="64" y="76" />
      <point x="156" y="-8" />
    </contour>
    <contour>
      <point x="139" y="257" type="curve" smooth="yes" />
      <point x="139" y="417" type="line" smooth="yes" />
      <point x="139" y="559" />
      <point x="195" y="620" />
      <point x="310" y="620" type="curve" smooth="yes" />
      <point x="423" y="620" />
      <point x="478" y="553" />
      <point x="478" y="417" type="curve" smooth="yes" />
      <point x="478" y="257" type="line" smooth="yes" />
      <point x="478" y="125" />
      <point x="422" y="61" />
      <point x="310" y="61" type="curve" smooth="yes" />
      <point x="197" y="61" />
      <point x="139" y="120" />
    </contour>
  </outline>
</glyph>
<glyph name="oe" format="2">
  <advance width="832" />
  <unicode hex="0153" />
  <outline>
    <contour>
      <point x="257" y="-7" type="curve" smooth="yes" />
      <point x="332" y="-7" />
      <point x="387" y="19" />
      <point x="419" y="70" type="curve" />
      <point x="454" y="19" />
      <point x="509" y="-7" />
      <point x="584" y="-7" type="curve" smooth="yes" />
      <point x="700" y="-7" />
      <point x="771" y="58" />
      <point x="772" y="151" type="curve" smooth="yes" />
      <point x="772" y="156" type="line" />
      <point x="704" y="156" type="line" />
      <point x="704" y="153" type="line" smooth="yes" />
      <point x="703" y="93" />
      <point x="660" y="56" />
      <point x="589" y="56" type="curve" smooth="yes" />
      <point x="503" y="56" />
      <point x="454" y="98" />
      <point x="454" y="211" type="curve" smooth="yes" />
      <point x="454" y="236" type="line" />
      <point x="775" y="236" type="line" />
      <point x="775" y="294" type="line" smooth="yes" />
      <point x="775" y="437" />
      <point x="700" y="508" />
      <point x="580" y="508" type="curve" smooth="yes" />
      <point x="510" y="508" />
      <point x="453" y="484" />
      <point x="419" y="432" type="curve" />
      <point x="387" y="483" />
      <point x="332" y="508" />
      <point x="257" y="508" type="curve" smooth="yes" />
      <point x="134" y="508" />
      <point x="57" y="442" />
      <point x="57" y="296" type="curve" smooth="yes" />
      <point x="57" y="205" type="line" smooth="yes" />
      <point x="57" y="61" />
      <point x="134" y="-7" />
    </contour>
    <contour>
      <point x="127" y="209" type="curve" smooth="yes" />
      <point x="127" y="293" type="line" smooth="yes" />
      <point x="127" y="402" />
      <point x="175" y="444" />
      <point x="257" y="444" type="curve" smooth="yes" />
      <point x="336" y="444" />
      <point x="384" y="402" />
      <point x="384" y="293" type="curve" smooth="yes" />
      <point x="384" y="209" type="line" smooth="yes" />
      <point x="384" y="99" />
      <point x="336" y="56" />
      <point x="257" y="56" type="curve" smooth="yes" />
      <point x="175" y="56" />
      <point x="127" y="99" />
    </contour>
    <contour>
      <point x="454" y="289" type="line" />
      <point x="454" y="302" type="line" smooth="yes" />
      <point x="454" y="410" />
      <point x="504" y="444" />
      <point x="581" y="444" type="curve" smooth="yes" />
      <point x="658" y="444" />
      <point x="705" y="404" />
      <point x="705" y="304" type="curve" smooth="yes" />
      <point x="705" y="289" type="line" />
    </contour>
  </outline>
</glyph>
<glyph name="tbar" format="2">
  <advance width="351" />
  <unicode hex="0167" />
  <outline>
    <component base="t" />
    <contour>
      <point x="33" y="302" type="line" />
      <point x="300" y="302" type="line" />
      <point x="300" y="357" type="line" />
      <point x="33" y="357" type="line" />
    </contour>
  </outline>
</glyph>
<glyph name="Uogonek" format="2">
  <advance width="640" />
  <unicode hex="0172" />
  <outline>
    <component base="U" />
    <contour>
      <point x="433" y="-210" type="curve" />
      <point x="433" y="-145" type="line" />
      <point x="379" y="-145" />
      <point x="347" y="-139" />
      <point x="314" y="-97" type="curve" />
      <point x="467" y="44" type="line" />
      <point x="373" y="6" type="line" />
      <point x="240" y="-88" type="line" />
      <point x="249" y="-116" />
      <point x="263" y="-139" />
      <point x="282" y="-157" type="curve" smooth="yes" />
      <point x="319" y="-190" />
      <point x="358" y="-209" />
    </contour>
  </outline>
</glyph>
<glyph name="florin" format="2">
  <advance width="412" />
  <unicode hex="0192" />
  <outline>
    <contour>
      <point x="13" y="-150" type="line" />
      <point x="44" y="-150" type="line" smooth="yes" />
      <point x="141" y="-150" />
      <point x="185" y="-110" />
      <point x="201" y="1" type="curve" smooth="yes" />
      <point x="251" y="340" type="line" />
      <point x="368" y="340" type="line" />
      <point x="368" y="405" type="line" />
      <point x="261" y="405" type="line" />
      <point x="281" y="531" type="line" smooth="yes" />
      <point x="290" y="592" />
      <point x="313" y="612" />
      <point x="364" y="612" type="curve" smooth="yes" />
      <point x="399" y="612" type="line" />
      <point x="399" y="680" type="line" />
      <point x="364" y="680" type="line" smooth="yes" />
      <point x="268" y="680" />
      <point x="223" y="637" />
      <point x="208" y="531" type="curve" smooth="yes" />
      <point x="189" y="405" type="line" />
      <point x="91" y="405" type="line" />
      <point x="91" y="340" type="line" />
      <point x="178" y="340" type="line" />
      <point x="128" y="0" type="line" smooth="yes" />
      <point x="118" y="-64" />
      <point x="97" y="-82" />
      <point x="43" y="-82" type="curve" smooth="yes" />
      <point x="13" y="-82" type="line" />
    </contour>
  </outline>
</glyph>
<glyph name="lbar" format="2">
  <advance width="294" />
  <unicode hex="019A" />
  <outline>
    <component base="l" />
    <contour>
      <point x="18" y="308" type="line" />
      <point x="248" y="308" type="line" />
      <point x="248" y="375" type="line" />
      <point x="18" y="375" type="line" />
    </contour>
  </outline>
</glyph>
<glyph name="dotlessj" format="2">
  <advance width="223" />
  <unicode hex="0237" />
  <anchor x="109" y="500" name="top" />
  <outline>
    <contour>
      <point x="-35" y="-150" type="line" />
      <point x="14" y="-150" type="line" smooth="yes" />
      <point x="99" y="-150" />
      <point x="143" y="-103" />
      <point x="143" y="-14" type="curve" smooth="yes" />
      <point x="143" y="500" type="line" />
      <point x="74" y="500" type="line" />
      <point x="74" y="-11" type="line" smooth="yes" />
      <point x="74" y="-63" />
      <point x="54" y="-86" />
      <point x="7" y="-86" type="curve" smooth="yes" />
      <point x="-35" y="-86" type="line" />
    </contour>
  </outline>
</glyph>
<glyph name="circumflex" format="2">
  <advance width="492" />
  <unicode hex="02C6" />
  <outline>
    <contour>
      <point x="108" y="554" type="line" />
      <point x="172" y="554" type="line" />
      <point x="246" y="647" type="line" />
      <point x="319" y="554" type="line" />
      <point x="384" y="554" type="line" />
      <point x="274" y="696" type="line" />
      <point x="217" y="696" type="line" />
    </contour>
  </outline>
</glyph>
<glyph name="caron" format="2">
  <advance width="492" />
  <unicode hex="02C7" />
  <outline>
    <contour>
      <point x="217" y="556" type="line" />
      <point x="274" y="556" type="line" />
      <point x="384" y="697" type="line" />
      <point x="319" y="697" type="line" />
      <point x="246" y="605" type="line" />
      <point x="172" y="697" type="line" />
      <point x="108" y="697" type="line" />
    </contour>
  </outline>
</glyph>
<glyph name="dotaccent" format="2">
  <advance width="492" />
  <unicode hex="02D9" />
  <outline>
    <contour>
      <point x="210" y="581" type="line" />
      <point x="283" y="581" type="line" />
      <point x="283" y="670" type="line" />
      <point x="210" y="670" type="line" />
    </contour>
  </outline>
</glyph>
<glyph name="ogonek" format="2">
  <advance width="492" />
  <unicode hex="02DB" />
  <outline>
    <contour>
      <point x="407" y="-209" type="curve" />
      <point x="407" y="-144" type="line" />
      <point x="353" y="-144" />
      <point x="321" y="-139" />
      <point x="289" y="-96" type="curve" />
      <point x="407" y="0" type="line" />
      <point x="407" y="11" type="line" />
      <point x="343" y="11" type="line" />
      <point x="214" y="-88" type="line" />
      <point x="223" y="-115" />
      <point x="237" y="-139" />
      <point x="257" y="-156" type="curve" smooth="yes" />
      <point x="294" y="-190" />
      <point x="332" y="-208" />
    </contour>
  </outline>
</glyph>
<glyph name="acutecomb" format="2">
  <unicode hex="0301" />
  <anchor x="0" y="499" name="_top" />
  <outline>
    <contour>
      <point x="-60" y="564" type="line" />
      <point x="7" y="564" type="line" />
      <point x="128" y="688" type="line" />
      <point x="41" y="688" type="line" />
    </contour>
  </outline>
</glyph>
<glyph name="tildecomb" format="2">
  <unicode hex="0303" />
  <anchor x="0" y="499" name="_top" />
  <outline>
    <contour>
      <point x="-127" y="561" type="line" />
      <point x="-100" y="589" />
      <point x="-85" y="599" />
      <point x="-59" y="599" type="curve" smooth="yes" />
      <point x="-42" y="599" />
      <point x="-28" y="594" />
      <point x="-8" y="582" type="curve" smooth="yes" />
      <point x="17" y="566" />
      <point x="31" y="562" />
      <point x="55" y="562" type="curve" smooth="yes" />
      <point x="81" y="562" />
      <point x="104" y="574" />
      <point x="126" y="598" type="curve" />
      <point x="126" y="660" type="line" />
      <point x="98" y="632" />
      <point x="83" y="621" />
      <point x="59" y="621" type="curve" smooth="yes" />
      <point x="38" y="621" />
      <point x="25" y="629" />
      <point x="5" y="641" type="curve" smooth="yes" />
      <point x="-18" y="654" />
      <point x="-34" y="660" />
      <point x="-56" y="660" type="curve" smooth="yes" />
      <point x="-84" y="660" />
      <point x="-103" y="649" />
      <point x="-127" y="622" type="curve" />
    </contour>
  </outline>
</glyph>
<glyph name="brevecmb" format="2">
  <unicode hex="0306" />
  <anchor x="0" y="499" name="_top" />
  <outline>
    <contour>
      <point x="0" y="551" type="curve" smooth="yes" />
      <point x="84" y="551" />
      <point x="128" y="597" />
      <point x="128" y="680" type="curve" smooth="yes" />
      <point x="128" y="697" type="line" />
      <point x="69" y="697" type="line" />
      <point x="69" y="680" type="line" smooth="yes" />
      <point x="69" y="632" />
      <point x="41" y="601" />
      <point x="0" y="601" type="curve" smooth="yes" />
      <point x="-41" y="601" />
      <point x="-69" y="632" />
      <point x="-69" y="680" type="curve" smooth="yes" />
      <point x="-69" y="697" type="line" />
      <point x="-128" y="697" type="line" />
      <point x="-128" y="680" type="line" smooth="yes" />
      <point x="-128" y="597" />
      <point x="-84" y="551" />
    </contour>
  </outline>
</glyph>
<glyph name="dieresiscmb" format="2">
  <unicode hex="0308" />
  <anchor x="0" y="499" name="_top" />
  <outline>
    <contour>
      <point x="-127" y="570" type="line" />
      <point x="-51" y="570" type="line" />
      <point x="-51" y="656" type="line" />
      <point x="-127" y="656" type="line" />
    </contour>
    <contour>
      <point x="50" y="570" type="line" />
      <point x="126" y="570" type="line" />
      <point x="126" y="656" type="line" />
      <point x="50" y="656" type="line" />
    </contour>
  </outline>
</glyph>
<glyph name="ringcmb" format="2">
  <unicode hex="030A" />
  <anchor x="0" y="499" name="_top" />
  <outline>
    <contour>
      <point x="0" y="552" type="curve" smooth="yes" />
      <point x="52" y="552" />
      <point x="90" y="591" />
      <point x="90" y="643" type="curve" smooth="yes" />
      <point x="90" y="695" />
      <point x="52" y="734" />
      <point x="0" y="734" type="curve" smooth="yes" />
      <point x="-53" y="734" />
      <point x="-90" y="695" />
      <point x="-90" y="643" type="curve" smooth="yes" />
      <point x="-90" y="591" />
      <point x="-52" y="552" />
    </contour>
    <contour>
      <point x="-51" y="643" type="curve" smooth="yes" />
      <point x="-51" y="673" />
      <point x="-29" y="695" />
      <point x="0" y="695" type="curve" smooth="yes" />
      <point x="29" y="695" />
      <point x="51" y="673" />
      <point x="51" y="643" type="curve" smooth="yes" />
      <point x="51" y="613" />
      <point x="29" y="591" />
      <point x="0" y="591" type="curve" smooth="yes" />
      <point x="-29" y="591" />
      <point x="-51" y="613" />
    </contour>
  </outline>
</glyph>
<glyph name="hungarumlautcmb" format="2">
  <unicode hex="030B" />
  <anchor x="0" y="499" name="_top" />
  <outline>
    <contour>
      <point x="-108" y="565" type="line" />
      <point x="-42" y="565" type="line" />
      <point x="78" y="689" type="line" />
      <point x="-9" y="689" type="line" />
    </contour>
    <contour>
      <point x="32" y="565" type="line" />
      <point x="98" y="565" type="line" />
      <point x="218" y="689" type="line" />
      <point x="131" y="689" type="line" />
    </contour>
  </outline>
</glyph>
<glyph name="commaturnedabovecmb" format="2">
  <unicode hex="0312" />
  <anchor x="0" y="499" name="_top" />
  <outline>
    <contour>
      <point x="-75" y="564" type="line" />
      <point x="13" y="564" type="line" />
      <point x="113" y="688" type="line" />
      <point x="47" y="688" type="line" />
    </contour>
  </outline>
</glyph>
<glyph name="cedillacmb" format="2">
  <unicode hex="0327" />
  <anchor x="0" y="0" name="_bottom" />
  <outline>
    <contour>
      <point x="181" y="-148" type="line" />
      <point x="253" y="-148" type="line" />
      <point x="309" y="12" type="line" />
      <point x="246" y="12" type="line" />
    </contour>
  </outline>
</glyph>
<glyph name="ogonekcmb" format="2">
  <unicode hex="0328" />
  <anchor x="0" y="0" name="_bottom" />
  <outline>
    <contour>
      <point x="52" y="-212" type="curve" />
      <point x="52" y="-148" type="line" />
      <point x="-2" y="-147" />
      <point x="-34" y="-142" />
      <point x="-67" y="-99" type="curve" />
      <point x="52" y="-1" type="line" />
      <point x="52" y="9" type="line" />
      <point x="-12" y="0" type="line" />
      <point x="-141" y="-91" type="line" />
      <point x="-132" y="-119" />
      <point x="-118" y="-141" />
      <point x="-99" y="-160" type="curve" smooth="yes" />
      <point x="-62" y="-193" />
      <point x="-24" y="-211" />
    </contour>
  </outline>
</glyph>
<glyph name="alpha" format="2">
  <advance width="644" />
  <unicode hex="03B1" />
  <outline>
    <contour>
      <point x="261" y="-6" type="curve" smooth="yes" />
      <point x="341" y="-6" />
      <point x="406" y="23" />
      <point x="437" y="86" type="curve" />
      <point x="471" y="38" />
      <point x="522" y="15" />
      <point x="592" y="14" type="curve" />
      <point x="592" y="73" type="line" />
      <point x="522" y="75" />
      <point x="476" y="109" />
      <point x="476" y="208" type="curve" smooth="yes" />
      <point x="476" y="292" type="line" smooth="yes" />
      <point x="476" y="391" />
      <point x="521" y="424" />
      <point x="592" y="426" type="curve" />
      <point x="592" y="486" type="line" />
      <point x="522" y="485" />
      <point x="471" y="463" />
      <point x="437" y="415" type="curve" />
      <point x="406" y="477" />
      <point x="341" y="506" />
      <point x="261" y="506" type="curve" smooth="yes" />
      <point x="138" y="506" />
      <point x="60" y="443" />
      <point x="60" y="301" type="curve" smooth="yes" />
      <point x="60" y="199" type="line" smooth="yes" />
      <point x="60" y="57" />
      <point x="138" y="-6" />
    </contour>
    <contour>
      <point x="130" y="203" type="curve" smooth="yes" />
      <point x="130" y="297" type="line" smooth="yes" />
      <point x="130" y="407" />
      <point x="180" y="445" />
      <point x="261" y="445" type="curve" smooth="yes" />
      <point x="340" y="445" />
      <point x="396" y="407" />
      <point x="396" y="297" type="curve" smooth="yes" />
      <point x="396" y="203" type="line" smooth="yes" />
      <point x="396" y="93" />
      <point x="340" y="54" />
      <point x="261" y="54" type="curve" smooth="yes" />
      <point x="180" y="54" />
      <point x="130" y="93" />
    </contour>
  </outline>
</glyph>
<glyph name="Eukrcyr" format="2">
  <advance width="610" />
  <unicode hex="0404" />
  <guideline x="312" y="0" angle="90" name="h1" />
  <anchor x="312" y="741" name="top" />
  <outline>
    <contour>
      <point x="312" y="-8" type="curve" smooth="yes" />
      <point x="448" y="-8" />
      <point x="549" y="65" />
      <point x="549" y="202" type="curve" smooth="yes" />
      <point x="549" y="206" type="line" />
      <point x="475" y="206" type="line" />
      <point x="475" y="201" type="line" smooth="yes" />
      <point x="475" y="109" />
      <point x="408" y="61" />
      <point x="314" y="61" type="curve" smooth="yes" />
      <point x="189" y="61" />
      <point x="139" y="137" />
      <point x="139" y="257" type="curve" smooth="yes" />
      <point x="139" y="314" type="line" />
      <point x="366" y="314" type="line" />
      <point x="366" y="381" type="line" />
      <point x="139" y="381" type="line" />
      <point x="139" y="419" type="line" smooth="yes" />
      <point x="139" y="540" />
      <point x="184" y="620" />
      <point x="313" y="620" type="curve" smooth="yes" />
      <point x="406" y="620" />
      <point x="475" y="574" />
      <point x="475" y="484" type="curve" smooth="yes" />
      <point x="475" y="476" type="line" />
      <point x="551" y="476" type="line" />
      <point x="551" y="485" type="line" smooth="yes" />
      <point x="551" y="617" />
      <point x="446" y="689" />
      <point x="313" y="689" type="curve" smooth="yes" />
      <point x="142" y="689" />
      <point x="64" y="586" />
      <point x="64" y="420" type="curve" smooth="yes" />
      <point x="64" y="260" type="line" smooth="yes" />
      <point x="64" y="94" />
      <point x="142" y="-8" />
    </contour>
  </outline>
</glyph>
<glyph name="Ljecyr" format="2">
  <advance width="911" />
  <unicode hex="0409" />
  <outline>
    <component base="Elcyr" />
    <contour>
      <point x="432" y="0" type="line" />
      <point x="630" y="0" type="line" smooth="yes" />
      <point x="768" y="0" />
      <point x="847" y="66" />
      <point x="847" y="195" type="curve" smooth="yes" />
      <point x="847" y="303" />
      <point x="766" y="386" />
      <point x="630" y="386" type="curve" smooth="yes" />
      <point x="432" y="386" type="line" />
      <point x="432" y="317" type="line" />
      <point x="625" y="317" type="line" smooth="yes" />
      <point x="722" y="317" />
      <point x="771" y="265" />
      <point x="771" y="195" type="curve" smooth="yes" />
      <point x="771" y="106" />
      <point x="723" y="68" />
      <point x="624" y="68" type="curve" smooth="yes" />
      <point x="432" y="68" type="line" />
    </contour>
  </outline>
</glyph>
<glyph name="Njecyr" format="2">
  <advance width="990" />
  <unicode hex="040A" />
  <outline>
    <component base="H" />
    <contour>
      <point x="511" y="0" type="line" />
      <point x="709" y="0" type="line" smooth="yes" />
      <point x="846" y="0" />
      <point x="926" y="66" />
      <point x="926" y="195" type="curve" smooth="yes" />
      <point x="926" y="303" />
      <point x="845" y="386" />
      <point x="709" y="386" type="curve" smooth="yes" />
      <point x="511" y="386" type="line" />
      <point x="511" y="317" type="line" />
      <point x="704" y="317" type="line" smooth="yes" />
      <point x="801" y="317" />
      <point x="850" y="265" />
      <point x="850" y="195" type="curve" smooth="yes" />
      <point x="850" y="106" />
      <point x="802" y="68" />
      <point x="703" y="68" type="curve" smooth="yes" />
      <point x="511" y="68" type="line" />
    </contour>
  </outline>
</glyph>
<glyph name="Tshecyr" format="2">
  <advance width="734" />
  <unicode hex="040B" />
  <outline>
    <contour>
      <point x="207" y="0" type="line" />
      <point x="282" y="0" type="line" />
      <point x="282" y="333" type="line" />
      <point x="337" y="347" />
      <point x="393" y="352" />
      <point x="448" y="352" type="curve" smooth="yes" />
      <point x="545" y="352" />
      <point x="594" y="289" />
      <point x="594" y="203" type="curve" smooth="yes" />
      <point x="594" y="0" type="line" />
      <point x="670" y="0" type="line" />
      <point x="670" y="203" type="line" smooth="yes" />
      <point x="670" y="326" />
      <point x="589" y="420" />
      <point x="453" y="420" type="curve" smooth="yes" />
      <point x="396" y="420" />
      <point x="338" y="415" />
      <point x="282" y="401" type="curve" />
      <point x="282" y="612" type="line" />
      <point x="480" y="612" type="line" />
      <point x="480" y="680" type="line" />
      <point x="8" y="680" type="line" />
      <point x="8" y="612" type="line" />
      <point x="207" y="612" type="line" />
    </contour>
  </outline>
</glyph>
<glyph name="Becyr" format="2">
  <advance width="613" />
  <unicode hex="0411" />
  <outline>
    <contour>
      <point x="77" y="0" type="line" />
      <point x="332" y="0" type="line" smooth="yes" />
      <point x="469" y="0" />
      <point x="549" y="74" />
      <point x="549" y="203" type="curve" smooth="yes" />
      <point x="549" y="326" />
      <point x="467" y="401" />
      <point x="332" y="401" type="curve" smooth="yes" />
      <point x="153" y="401" type="line" />
      <point x="153" y="613" type="line" />
      <point x="502" y="613" type="line" />
      <point x="502" y="680" type="line" />
      <point x="77" y="680" type="line" />
    </contour>
    <contour>
      <point x="153" y="68" type="line" />
      <point x="153" y="333" type="line" />
      <point x="327" y="333" type="line" smooth="yes" />
      <point x="424" y="333" />
      <point x="473" y="289" />
      <point x="473" y="203" type="curve" smooth="yes" />
      <point x="473" y="114" />
      <point x="425" y="68" />
      <point x="326" y="68" type="curve" smooth="yes" />
    </contour>
  </outline>
</glyph>
<glyph name="Gecyr" format="2">
  <advance width="510" />
  <unicode hex="0413" />
  <guideline x="306" y="0" angle="90" name="h1" />
  <anchor x="306" y="741" name="top" />
  <outline>
    <contour>
      <point x="77" y="0" type="line" />
      <point x="153" y="0" type="line" />
      <point x="153" y="613" type="line" />
      <point x="502" y="613" type="line" />
      <point x="502" y="680" type="line" />
      <point x="77" y="680" type="line" />
    </contour>
  </outline>
</glyph>
<glyph name="Decyr" format="2">
  <advance width="624" />
  <unicode hex="0414" />
  <outline>
    <contour>
      <point x="10" y="-164" type="line" />
      <point x="86" y="-164" type="line" />
      <point x="86" y="0" type="line" />
      <point x="539" y="0" type="line" />
      <point x="539" y="-164" type="line" />
      <point x="615" y="-164" type="line" />
      <point x="615" y="67" type="line" />
      <point x="544" y="67" type="line" />
      <point x="544" y="680" type="line" />
      <point x="170" y="680" type="line" />
      <point x="160" y="513" type="line" smooth="yes" />
      <point x="151" y="342" />
      <point x="113" y="81" />
      <point x="53" y="67" type="curve" />
      <point x="10" y="67" type="line" />
    </contour>
    <contour>
      <point x="155" y="67" type="line" />
      <point x="184" y="97" />
      <point x="224" y="189" />
      <point x="237" y="511" type="curve" smooth="yes" />
      <point x="243" y="613" type="line" />
      <point x="468" y="613" type="line" />
      <point x="468" y="67" type="line" />
    </contour>
  </outline>
</glyph>
<glyph name="Zhecyr" format="2">
  <advance width="980" />
  <unicode hex="0416" />
  <guideline x="215" y="0" angle="90" name="vertical" />
  <guideline x="0" y="680" angle="0" name="horizontal" />
  <guideline x="408" y="0" angle="90" name="vertical" />
  <guideline x="0" y="680" angle="0" name="horizontal" />
  <anchor x="400" y="680" name="top" />
  <outline>
    <contour>
      <point x="10" y="0" type="line" />
      <point x="98" y="0" type="line" />
      <point x="341" y="314" type="line" />
      <point x="452" y="314" type="line" />
      <point x="452" y="0" type="line" />
      <point x="528" y="0" type="line" />
      <point x="528" y="314" type="line" />
      <point x="640" y="314" type="line" />
      <point x="882" y="0" type="line" />
      <point x="971" y="0" type="line" />
      <point x="692" y="368" type="line" />
      <point x="940" y="680" type="line" />
      <point x="851" y="680" type="line" />
      <point x="618" y="381" type="line" />
      <point x="528" y="381" type="line" />
      <point x="528" y="680" type="line" />
      <point x="452" y="680" type="line" />
      <point x="452" y="381" type="line" />
      <point x="363" y="381" type="line" />
      <point x="129" y="680" type="line" />
      <point x="40" y="680" type="line" />
      <point x="289" y="368" type="line" />
    </contour>
  </outline>
</glyph>
<glyph name="Zecyr" format="2">
  <advance width="577" />
  <unicode hex="0417" />
  <outline>
    <contour>
      <point x="285" y="-6" type="curve" smooth="yes" />
      <point x="414" y="-6" />
      <point x="515" y="59" />
      <point x="515" y="184" type="curve" smooth="yes" />
      <point x="515" y="198" type="line" smooth="yes" />
      <point x="515" y="269" />
      <point x="471" y="329" />
      <point x="401" y="351" type="curve" />
      <point x="463" y="371" />
      <point x="503" y="428" />
      <point x="503" y="493" type="curve" smooth="yes" />
      <point x="503" y="503" type="line" smooth="yes" />
      <point x="503" y="625" />
      <point x="415" y="687" />
      <point x="289" y="687" type="curve" smooth="yes" />
      <point x="153" y="687" />
      <point x="63" y="610" />
      <point x="63" y="497" type="curve" smooth="yes" />
      <point x="63" y="490" type="line" />
      <point x="138" y="490" type="line" />
      <point x="138" y="497" type="line" smooth="yes" />
      <point x="139" y="570" />
      <point x="196" y="619" />
      <point x="284" y="619" type="curve" smooth="yes" />
      <point x="368" y="619" />
      <point x="428" y="580" />
      <point x="428" y="499" type="curve" smooth="yes" />
      <point x="428" y="490" type="line" smooth="yes" />
      <point x="428" y="416" />
      <point x="366" y="381" />
      <point x="287" y="381" type="curve" smooth="yes" />
      <point x="191" y="381" type="line" />
      <point x="191" y="315" type="line" />
      <point x="291" y="315" type="line" smooth="yes" />
      <point x="379" y="315" />
      <point x="439" y="273" />
      <point x="439" y="190" type="curve" smooth="yes" />
      <point x="439" y="180" type="line" smooth="yes" />
      <point x="439" y="99" />
      <point x="370" y="62" />
      <point x="284" y="62" type="curve" smooth="yes" />
      <point x="195" y="62" />
      <point x="138" y="111" />
      <point x="138" y="184" type="curve" smooth="yes" />
      <point x="138" y="191" type="line" />
      <point x="63" y="191" type="line" />
      <point x="63" y="184" type="line" smooth="yes" />
      <point x="63" y="70" />
      <point x="150" y="-6" />
    </contour>
  </outline>
</glyph>
<glyph name="Icyr" format="2">
  <advance width="652" />
  <unicode hex="0418" />
  <guideline x="311" y="0" angle="90" name="h1" />
  <anchor x="311" y="741" name="top" />
  <outline>
    <contour>
      <point x="77" y="0" type="line" />
      <point x="155" y="0" type="line" />
      <point x="498" y="550" type="line" />
      <point x="498" y="0" type="line" />
      <point x="574" y="0" type="line" />
      <point x="574" y="680" type="line" />
      <point x="496" y="680" type="line" />
      <point x="153" y="131" type="line" />
      <point x="153" y="680" type="line" />
      <point x="77" y="680" type="line" />
    </contour>
  </outline>
</glyph>
<glyph name="Pecyr" format="2">
  <advance width="619" />
  <unicode hex="041F" />
  <outline>
    <contour>
      <point x="77" y="0" type="line" />
      <point x="153" y="0" type="line" />
      <point x="153" y="613" type="line" />
      <point x="466" y="613" type="line" />
      <point x="466" y="0" type="line" />
      <point x="542" y="0" type="line" />
      <point x="542" y="680" type="line" />
      <point x="77" y="680" type="line" />
    </contour>
  </outline>
</glyph>
<glyph name="Ucyr" format="2">
  <advance width="508" />
  <unicode hex="0423" />
  <guideline x="248" y="0" angle="90" name="h1" />
  <anchor x="248" y="741" name="top" />
  <outline>
    <contour>
      <point x="89" y="-6" type="line" />
      <point x="119" y="-6" type="line" smooth="yes" />
      <point x="171" y="-6" />
      <point x="221" y="36" />
      <point x="251" y="102" type="curve" smooth="yes" />
      <point x="501" y="680" type="line" />
      <point x="418" y="680" type="line" />
      <point x="248" y="280" type="line" />
      <point x="89" y="680" type="line" />
      <point x="7" y="680" type="line" />
      <point x="209" y="181" type="line" />
      <point x="194" y="144" type="line" smooth="yes" />
      <point x="174" y="93" />
      <point x="141" y="63" />
      <point x="107" y="63" type="curve" smooth="yes" />
      <point x="89" y="63" type="line" />
    </contour>
  </outline>
</glyph>
<glyph name="Tsecyr" format="2">
  <advance width="598" />
  <unicode hex="0426" />
  <outline>
    <contour>
      <point x="514" y="-164" type="line" />
      <point x="589" y="-164" type="line" />
      <point x="589" y="67" type="line" />
      <point x="519" y="67" type="line" />
      <point x="519" y="680" type="line" />
      <point x="443" y="680" type="line" />
      <point x="443" y="67" type="line" />
      <point x="153" y="67" type="line" />
      <point x="153" y="680" type="line" />
      <point x="77" y="680" type="line" />
      <point x="77" y="0" type="line" />
      <point x="514" y="0" type="line" />
    </contour>
  </outline>
</glyph>
<glyph name="Checyr" format="2">
  <advance width="635" />
  <unicode hex="0427" />
  <outline>
    <contour>
      <point x="481" y="0" type="line" />
      <point x="557" y="0" type="line" />
      <point x="557" y="680" type="line" />
      <point x="481" y="680" type="line" />
      <point x="481" y="331" type="line" />
      <point x="448" y="299" />
      <point x="388" y="282" />
      <point x="317" y="282" type="curve" smooth="yes" />
      <point x="215" y="282" />
      <point x="152" y="348" />
      <point x="152" y="453" type="curve" smooth="yes" />
      <point x="152" y="680" type="line" />
      <point x="76" y="680" type="line" />
      <point x="76" y="447" type="line" smooth="yes" />
      <point x="76" y="306" />
      <point x="170" y="215" />
      <point x="317" y="215" type="curve" smooth="yes" />
      <point x="387" y="215" />
      <point x="442" y="227" />
      <point x="481" y="251" type="curve" />
    </contour>
  </outline>
</glyph>
<glyph name="Hardcyr" format="2">
  <advance width="722" />
  <unicode hex="042A" />
  <outline>
    <contour>
      <point x="187" y="0" type="line" />
      <point x="442" y="0" type="line" smooth="yes" />
      <point x="579" y="0" />
      <point x="659" y="74" />
      <point x="659" y="203" type="curve" smooth="yes" />
      <point x="659" y="326" />
      <point x="577" y="401" />
      <point x="442" y="401" type="curve" smooth="yes" />
      <point x="263" y="401" type="line" />
      <point x="263" y="680" type="line" />
      <point x="0" y="680" type="line" />
      <point x="0" y="613" type="line" />
      <point x="187" y="613" type="line" />
    </contour>
    <contour>
      <point x="263" y="68" type="line" />
      <point x="263" y="333" type="line" />
      <point x="437" y="333" type="line" smooth="yes" />
      <point x="534" y="333" />
      <point x="583" y="289" />
      <point x="583" y="203" type="curve" smooth="yes" />
      <point x="583" y="114" />
      <point x="535" y="68" />
      <point x="436" y="68" type="curve" smooth="yes" />
    </contour>
  </outline>
</glyph>
<glyph name="Softcyr" format="2">
  <advance width="613" />
  <unicode hex="042C" />
  <guideline x="296" y="0" angle="90" name="h1" />
  <guideline x="296" y="0" angle="90" name="h1" />
  <anchor x="296" y="741" name="top" />
  <outline>
    <contour>
      <point x="77" y="0" type="line" />
      <point x="332" y="0" type="line" smooth="yes" />
      <point x="469" y="0" />
      <point x="549" y="74" />
      <point x="549" y="203" type="curve" smooth="yes" />
      <point x="549" y="326" />
      <point x="467" y="401" />
      <point x="332" y="401" type="curve" smooth="yes" />
      <point x="153" y="401" type="line" />
      <point x="153" y="680" type="line" />
      <point x="77" y="680" type="line" />
    </contour>
    <contour>
      <point x="153" y="68" type="line" />
      <point x="153" y="333" type="line" />
      <point x="327" y="333" type="line" smooth="yes" />
      <point x="424" y="333" />
      <point x="473" y="289" />
      <point x="473" y="203" type="curve" smooth="yes" />
      <point x="473" y="114" />
      <point x="425" y="68" />
      <point x="326" y="68" type="curve" smooth="yes" />
    </contour>
  </outline>
</glyph>
<glyph name="Ereversedcyr" format="2">
  <advance width="608" />
  <unicode hex="042D" />
  <guideline x="297" y="0" angle="90" name="h1" />
  <anchor x="297" y="741" name="top" />
  <outline>
    <contour>
      <point x="298" y="-8" type="curve" smooth="yes" />
      <point x="451" y="-8" />
      <point x="545" y="76" />
      <point x="545" y="260" type="curve" smooth="yes" />
      <point x="545" y="420" type="line" smooth="yes" />
      <point x="545" y="605" />
      <point x="451" y="689" />
      <point x="297" y="689" type="curve" smooth="yes" />
      <point x="154" y="689" />
      <point x="59" y="606" />
      <point x="59" y="479" type="curve" smooth="yes" />
      <point x="59" y="476" type="line" />
      <point x="135" y="476" type="line" />
      <point x="135" y="479" type="line" smooth="yes" />
      <point x="135" y="568" />
      <point x="196" y="620" />
      <point x="297" y="620" type="curve" smooth="yes" />
      <point x="412" y="620" />
      <point x="470" y="560" />
      <point x="470" y="417" type="curve" smooth="yes" />
      <point x="470" y="381" type="line" />
      <point x="244" y="381" type="line" />
      <point x="244" y="314" type="line" />
      <point x="470" y="314" type="line" />
      <point x="470" y="257" type="line" smooth="yes" />
      <point x="470" y="125" />
      <point x="414" y="61" />
      <point x="296" y="61" type="curve" smooth="yes" />
      <point x="196" y="61" />
      <point x="135" y="113" />
      <point x="135" y="202" type="curve" smooth="yes" />
      <point x="135" y="206" type="line" />
      <point x="61" y="206" type="line" />
      <point x="61" y="202" type="line" smooth="yes" />
      <point x="61" y="73" />
      <point x="153" y="-8" />
    </contour>
  </outline>
</glyph>
<glyph name="Yacyr" format="2">
  <advance width="602" />
  <unicode hex="042F" />
  <guideline x="325" y="0" angle="90" name="h1" />
  <anchor x="325" y="741" name="top" />
  <outline>
    <contour>
      <point x="38" y="0" type="line" />
      <point x="125" y="0" type="line" />
      <point x="279" y="296" type="line" />
      <point x="449" y="296" type="line" />
      <point x="449" y="0" type="line" />
      <point x="525" y="0" type="line" />
      <point x="525" y="680" type="line" />
      <point x="265" y="680" type="line" smooth="yes" />
      <point x="133" y="680" />
      <point x="54" y="610" />
      <point x="54" y="488" type="curve" smooth="yes" />
      <point x="54" y="390" />
      <point x="107" y="325" />
      <point x="200" y="304" type="curve" />
    </contour>
    <contour>
      <point x="130" y="487" type="curve" smooth="yes" />
      <point x="130" y="570" />
      <point x="179" y="612" />
      <point x="269" y="612" type="curve" smooth="yes" />
      <point x="449" y="612" type="line" />
      <point x="449" y="362" type="line" />
      <point x="268" y="362" type="line" smooth="yes" />
      <point x="179" y="362" />
      <point x="130" y="406" />
    </contour>
  </outline>
</glyph>
<glyph name="becyr" format="2">
  <advance width="502" />
  <unicode hex="0431" />
  <outline>
    <contour>
      <point x="250" y="-7" type="curve" smooth="yes" />
      <point x="377" y="-7" />
      <point x="445" y="87" />
      <point x="445" y="204" type="curve" smooth="yes" />
      <point x="445" y="258" type="line" smooth="yes" />
      <point x="445" y="376" />
      <point x="392" y="467" />
      <point x="270" y="467" type="curve" smooth="yes" />
      <point x="210" y="467" />
      <point x="162" y="446" />
      <point x="127" y="407" type="curve" />
      <point x="127" y="612" />
      <point x="269" y="555" />
      <point x="379" y="611" type="curve" />
      <point x="379" y="680" type="line" />
      <point x="240" y="603" />
      <point x="57" y="688" />
      <point x="57" y="415" type="curve" smooth="yes" />
      <point x="57" y="223" type="line" smooth="yes" />
      <point x="58" y="84" />
      <point x="119" y="-7" />
    </contour>
    <contour>
      <point x="127" y="208" type="curve" smooth="yes" />
      <point x="127" y="250" type="line" smooth="yes" />
      <point x="127" y="335" />
      <point x="164" y="405" />
      <point x="255" y="405" type="curve" smooth="yes" />
      <point x="345" y="405" />
      <point x="375" y="337" />
      <point x="375" y="255" type="curve" smooth="yes" />
      <point x="375" y="208" type="line" smooth="yes" />
      <point x="375" y="126" />
      <point x="341" y="56" />
      <point x="252" y="56" type="curve" smooth="yes" />
      <point x="163" y="56" />
      <point x="127" y="124" />
    </contour>
  </outline>
</glyph>
<glyph name="vecyr" format="2">
  <advance width="524" />
  <unicode hex="0432" />
  <outline>
    <contour>
      <point x="72" y="0" type="line" />
      <point x="297" y="0" type="line" smooth="yes" />
      <point x="399" y="0" />
      <point x="453" y="50" />
      <point x="453" y="144" type="curve" smooth="yes" />
      <point x="453" y="208" />
      <point x="429" y="258" />
      <point x="378" y="275" type="curve" />
      <point x="419" y="297" />
      <point x="434" y="333" />
      <point x="434" y="379" type="curve" smooth="yes" />
      <point x="434" y="452" />
      <point x="383" y="500" />
      <point x="307" y="500" type="curve" smooth="yes" />
      <point x="72" y="500" type="line" />
    </contour>
    <contour>
      <point x="143" y="65" type="line" />
      <point x="143" y="236" type="line" />
      <point x="305" y="236" type="line" smooth="yes" />
      <point x="356" y="236" />
      <point x="375" y="192" />
      <point x="375" y="151" type="curve" smooth="yes" />
      <point x="375" y="97" />
      <point x="346" y="65" />
      <point x="299" y="65" type="curve" smooth="yes" />
    </contour>
    <contour>
      <point x="143" y="301" type="line" />
      <point x="143" y="435" type="line" />
      <point x="291" y="435" type="line" smooth="yes" />
      <point x="331" y="435" />
      <point x="363" y="419" />
      <point x="363" y="369" type="curve" smooth="yes" />
      <point x="363" y="341" />
      <point x="337" y="301" />
      <point x="291" y="301" type="curve" smooth="yes" />
    </contour>
  </outline>
</glyph>
<glyph name="gecyr" format="2">
  <advance width="340" />
  <unicode hex="0433" />
  <guideline x="207" y="0" angle="90" name="h1" />
  <anchor x="207" y="564" name="top" />
  <outline>
    <contour>
      <point x="72" y="0" type="line" />
      <point x="142" y="0" type="line" />
      <point x="142" y="435" type="line" />
      <point x="316" y="435" type="line" />
      <point x="316" y="500" type="line" />
      <point x="72" y="500" type="line" />
    </contour>
  </outline>
</glyph>
<glyph name="decyr" format="2">
  <advance width="525" />
  <unicode hex="0434" />
  <guideline x="196" y="422" angle="87.1659" />
  <guideline x="161" y="448" angle="266.6" />
  <outline>
    <contour>
      <point x="19" y="-164" type="line" />
      <point x="93" y="-164" type="line" />
      <point x="93" y="0" type="line" />
      <point x="435" y="0" type="line" />
      <point x="435" y="-164" type="line" />
      <point x="506" y="-164" type="line" />
      <point x="506" y="65" type="line" />
      <point x="457" y="65" type="line" />
      <point x="457" y="500" type="line" />
      <point x="155" y="500" type="line" />
      <point x="144" y="353" type="line" smooth="yes" />
      <point x="134" y="197" />
      <point x="109" y="96" />
      <point x="72" y="65" type="curve" />
      <point x="19" y="65" type="line" />
    </contour>
    <contour>
      <point x="160" y="65" type="line" />
      <point x="189" y="120" />
      <point x="208" y="216" />
      <point x="215" y="348" type="curve" smooth="yes" />
      <point x="221" y="434" type="line" />
      <point x="386" y="434" type="line" />
      <point x="386" y="65" type="line" />
    </contour>
  </outline>
</glyph>
<glyph name="zhecyr" format="2">
  <advance width="772" />
  <unicode hex="0436" />
  <guideline x="263" y="0" angle="90" name="vertical" />
  <guideline x="0" y="499" angle="0" name="horizontal" />
  <guideline x="748" y="0" angle="90" name="vertical" />
  <guideline x="0" y="499" angle="0" name="horizontal" />
  <anchor x="748" y="499" name="top" />
  <outline>
    <component base="kacyr" xOffset="279" />
    <contour>
      <point x="13" y="0" type="line" />
      <point x="98" y="0" type="line" />
      <point x="263" y="232" type="line" />
      <point x="370" y="232" type="line" />
      <point x="370" y="296" type="line" />
      <point x="275" y="296" type="line" />
      <point x="123" y="500" type="line" />
      <point x="38" y="500" type="line" />
      <point x="211" y="277" type="line" />
    </contour>
  </outline>
</glyph>
<glyph name="zecyr" format="2">
  <advance width="471" />
  <unicode hex="0437" />
  <outline>
    <contour>
      <point x="232" y="-7" type="curve" smooth="yes" />
      <point x="339" y="-7" />
      <point x="409" y="50" />
      <point x="409" y="139" type="curve" smooth="yes" />
      <point x="409" y="145" type="line" smooth="yes" />
      <point x="409" y="203" />
      <point x="382" y="247" />
      <point x="334" y="265" type="curve" />
      <point x="375" y="281" />
      <point x="400" y="319" />
      <point x="400" y="366" type="curve" smooth="yes" />
      <point x="400" y="370" type="line" smooth="yes" />
      <point x="400" y="457" />
      <point x="338" y="508" />
      <point x="228" y="508" type="curve" smooth="yes" />
      <point x="127" y="508" />
      <point x="57" y="447" />
      <point x="57" y="370" type="curve" smooth="yes" />
      <point x="57" y="362" type="line" />
      <point x="127" y="362" type="line" />
      <point x="127" y="370" type="line" smooth="yes" />
      <point x="127" y="417" />
      <point x="169" y="453" />
      <point x="228" y="453" type="curve" smooth="yes" />
      <point x="292" y="453" />
      <point x="330" y="425" />
      <point x="330" y="374" type="curve" smooth="yes" />
      <point x="330" y="366" type="line" smooth="yes" />
      <point x="330" y="315" />
      <point x="296" y="286" />
      <point x="236" y="286" type="curve" smooth="yes" />
      <point x="161" y="286" type="line" />
      <point x="161" y="231" type="line" />
      <point x="239" y="231" type="line" smooth="yes" />
      <point x="303" y="231" />
      <point x="339" y="199" />
      <point x="339" y="142" type="curve" smooth="yes" />
      <point x="339" y="135" type="line" smooth="yes" />
      <point x="339" y="79" />
      <point x="301" y="48" />
      <point x="234" y="48" type="curve" smooth="yes" />
      <point x="172" y="48" />
      <point x="128" y="83" />
      <point x="127" y="131" type="curve" smooth="yes" />
      <point x="127" y="139" type="line" />
      <point x="57" y="139" type="line" />
      <point x="57" y="131" type="line" smooth="yes" />
      <point x="57" y="50" />
      <point x="129" y="-7" />
    </contour>
  </outline>
</glyph>
<glyph name="icyr" format="2">
  <advance width="540" />
  <unicode hex="0438" />
  <guideline x="265" y="0" angle="90" name="h1" />
  <anchor x="265" y="564" name="top" />
  <outline>
    <contour>
      <point x="72" y="0" type="line" />
      <point x="153" y="0" type="line" />
      <point x="396" y="406" type="line" />
      <point x="396" y="0" type="line" />
      <point x="467" y="0" type="line" />
      <point x="467" y="500" type="line" />
      <point x="387" y="500" type="line" />
      <point x="143" y="94" type="line" />
      <point x="143" y="500" type="line" />
      <point x="72" y="500" type="line" />
    </contour>
  </outline>
</glyph>
<glyph name="kacyr" format="2">
  <advance width="493" />
  <unicode hex="043A" />
  <guideline x="181" y="266" angle="54.0652" />
  <guideline x="173" y="240" angle="305.362" />
  <guideline x="0" y="317" angle="0" />
  <guideline x="51" y="198" angle="0" />
  <guideline x="359" y="499" angle="235.397" />
  <guideline x="467" y="0" angle="125.519" />
  <guideline x="0" y="266" angle="0" />
  <guideline x="359" y="499" angle="235.397" />
  <guideline x="260" y="251" angle="54.0652" />
  <guideline x="226" y="0" angle="90" name="h1" />
  <anchor x="232" y="564" name="top" />
  <outline>
    <contour>
      <point x="72" y="0" type="line" />
      <point x="142" y="0" type="line" />
      <point x="142" y="232" type="line" />
      <point x="232" y="232" type="line" />
      <point x="395" y="0" type="line" />
      <point x="481" y="0" type="line" />
      <point x="284" y="277" type="line" />
      <point x="457" y="500" type="line" />
      <point x="371" y="500" type="line" />
      <point x="219" y="296" type="line" />
      <point x="142" y="296" type="line" />
      <point x="142" y="500" type="line" />
      <point x="72" y="500" type="line" />
    </contour>
  </outline>
</glyph>
<glyph name="encyr" format="2">
  <advance width="525" />
  <unicode hex="043D" />
  <outline>
    <contour>
      <point x="72" y="0" type="line" />
      <point x="143" y="0" type="line" />
      <point x="143" y="236" type="line" />
      <point x="382" y="236" type="line" />
      <point x="382" y="0" type="line" />
      <point x="453" y="0" type="line" />
      <point x="453" y="500" type="line" />
      <point x="382" y="500" type="line" />
      <point x="382" y="301" type="line" />
      <point x="143" y="301" type="line" />
      <point x="143" y="500" type="line" />
      <point x="72" y="500" type="line" />
    </contour>
  </outline>
</glyph>
<glyph name="pecyr" format="2">
  <advance width="518" />
  <unicode hex="043F" />
  <outline>
    <contour>
      <point x="72" y="0" type="line" />
      <point x="143" y="0" type="line" />
      <point x="143" y="435" type="line" />
      <point x="374" y="435" type="line" />
      <point x="374" y="0" type="line" />
      <point x="444" y="0" type="line" />
      <point x="444" y="500" type="line" />
      <point x="72" y="500" type="line" />
    </contour>
  </outline>
</glyph>
<glyph name="tecyr" format="2">
  <advance width="346" />
  <unicode hex="0442" />
  <guideline x="190" y="0" angle="90" name="h1" />
  <anchor x="173" y="564" name="top" />
  <outline>
    <contour>
      <point x="139" y="0" type="line" />
      <point x="209" y="0" type="line" />
      <point x="209" y="435" type="line" />
      <point x="339" y="435" type="line" />
      <point x="339" y="500" type="line" />
      <point x="8" y="501" type="line" />
      <point x="8" y="435" type="line" />
      <point x="139" y="435" type="line" />
    </contour>
  </outline>
</glyph>
<glyph name="efcyr" format="2">
  <advance width="818" />
  <unicode hex="0444" />
  <guideline x="0" y="499" angle="0" name="horizontal" />
  <guideline x="0" y="680" angle="0" name="horizontal" />
  <guideline x="0" y="499" angle="0" name="horizontal" />
  <outline>
    <contour>
      <point x="373" y="-152" type="line" />
      <point x="443" y="-152" type="line" />
      <point x="443" y="66" type="line" />
      <point x="473" y="15" />
      <point x="524" y="-7" />
      <point x="584" y="-7" type="curve" smooth="yes" />
      <point x="710" y="-7" />
      <point x="761" y="87" />
      <point x="761" y="205" type="curve" smooth="yes" />
      <point x="761" y="297" type="line" smooth="yes" />
      <point x="761" y="417" />
      <point x="706" y="507" />
      <point x="580" y="507" type="curve" smooth="yes" />
      <point x="521" y="507" />
      <point x="472" y="481" />
      <point x="443" y="431" type="curve" />
      <point x="443" y="680" type="line" />
      <point x="374" y="680" type="line" />
      <point x="374" y="431" type="line" />
      <point x="345" y="481" />
      <point x="296" y="507" />
      <point x="237" y="507" type="curve" smooth="yes" />
      <point x="111" y="507" />
      <point x="57" y="417" />
      <point x="57" y="297" type="curve" smooth="yes" />
      <point x="57" y="205" type="line" smooth="yes" />
      <point x="57" y="87" />
      <point x="108" y="-7" />
      <point x="233" y="-7" type="curve" smooth="yes" />
      <point x="293" y="-7" />
      <point x="343" y="15" />
      <point x="373" y="66" type="curve" />
    </contour>
    <contour>
      <point x="127" y="209" type="curve" smooth="yes" />
      <point x="127" y="292" type="line" smooth="yes" />
      <point x="127" y="376" />
      <point x="156" y="444" />
      <point x="247" y="444" type="curve" smooth="yes" />
      <point x="338" y="444" />
      <point x="374" y="371" />
      <point x="374" y="290" type="curve" smooth="yes" />
      <point x="374" y="207" type="line" smooth="yes" />
      <point x="374" y="126" />
      <point x="332" y="56" />
      <point x="244" y="56" type="curve" smooth="yes" />
      <point x="155" y="56" />
      <point x="127" y="126" />
    </contour>
    <contour>
      <point x="443" y="207" type="curve" smooth="yes" />
      <point x="443" y="290" type="line" smooth="yes" />
      <point x="443" y="371" />
      <point x="480" y="444" />
      <point x="569" y="444" type="curve" smooth="yes" />
      <point x="662" y="444" />
      <point x="691" y="376" />
      <point x="691" y="292" type="curve" smooth="yes" />
      <point x="691" y="209" type="line" smooth="yes" />
      <point x="691" y="126" />
      <point x="663" y="56" />
      <point x="573" y="56" type="curve" smooth="yes" />
      <point x="486" y="56" />
      <point x="443" y="126" />
    </contour>
  </outline>
</glyph>
<glyph name="tsecyr" format="2">
  <advance width="512" />
  <unicode hex="0446" />
  <outline>
    <contour>
      <point x="431" y="-164" type="line" />
      <point x="502" y="-164" type="line" />
      <point x="502" y="65" type="line" />
      <point x="453" y="65" type="line" />
      <point x="453" y="500" type="line" />
      <point x="382" y="500" type="line" />
      <point x="382" y="65" type="line" />
      <point x="143" y="65" type="line" />
      <point x="143" y="500" type="line" />
      <point x="72" y="500" type="line" />
      <point x="72" y="0" type="line" />
      <point x="431" y="0" type="line" />
    </contour>
  </outline>
</glyph>
<glyph name="checyr" format="2">
  <advance width="524" />
  <unicode hex="0447" />
  <outline>
    <contour>
      <point x="382" y="0" type="line" />
      <point x="452" y="0" type="line" />
      <point x="452" y="500" type="line" />
      <point x="382" y="500" type="line" />
      <point x="382" y="240" type="line" />
      <point x="359" y="221" />
      <point x="325" y="215" />
      <point x="262" y="215" type="curve" smooth="yes" />
      <point x="182" y="215" />
      <point x="143" y="266" />
      <point x="143" y="344" type="curve" smooth="yes" />
      <point x="143" y="500" type="line" />
      <point x="72" y="500" type="line" />
      <point x="72" y="335" type="line" smooth="yes" />
      <point x="72" y="223" />
      <point x="130" y="152" />
      <point x="242" y="152" type="curve" smooth="yes" />
      <point x="301" y="152" />
      <point x="348" y="160" />
      <point x="382" y="176" type="curve" />
    </contour>
  </outline>
</glyph>
<glyph name="softcyr" format="2">
  <advance width="509" />
  <unicode hex="044C" />
  <outline>
    <contour>
      <point x="72" y="0" type="line" />
      <point x="297" y="0" type="line" smooth="yes" />
      <point x="399" y="0" />
      <point x="453" y="50" />
      <point x="453" y="144" type="curve" smooth="yes" />
      <point x="453" y="235" />
      <point x="418" y="301" />
      <point x="311" y="301" type="curve" smooth="yes" />
      <point x="143" y="301" type="line" />
      <point x="143" y="500" type="line" />
      <point x="72" y="500" type="line" />
    </contour>
    <contour>
      <point x="143" y="65" type="line" />
      <point x="143" y="236" type="line" />
      <point x="305" y="236" type="line" smooth="yes" />
      <point x="356" y="236" />
      <point x="375" y="192" />
      <point x="375" y="151" type="curve" smooth="yes" />
      <point x="375" y="97" />
      <point x="346" y="65" />
      <point x="299" y="65" type="curve" smooth="yes" />
    </contour>
  </outline>
</glyph>
<glyph name="ereversedcyr" format="2">
  <advance width="505" />
  <unicode hex="044D" />
  <guideline x="53" y="399" angle="0" name="horizontal" />
  <guideline x="241" y="0" angle="90" name="h1" />
  <anchor x="245" y="564" name="top" />
  <outline>
    <contour>
      <point x="246" y="-7" type="curve" smooth="yes" />
      <point x="371" y="-7" />
      <point x="449" y="61" />
      <point x="449" y="205" type="curve" smooth="yes" />
      <point x="449" y="296" type="line" smooth="yes" />
      <point x="449" y="441" />
      <point x="370" y="508" />
      <point x="247" y="508" type="curve" smooth="yes" />
      <point x="130" y="508" />
      <point x="57" y="442" />
      <point x="57" y="338" type="curve" smooth="yes" />
      <point x="57" y="333" type="line" />
      <point x="125" y="333" type="line" />
      <point x="125" y="338" type="line" smooth="yes" />
      <point x="125" y="405" />
      <point x="169" y="444" />
      <point x="244" y="444" type="curve" smooth="yes" />
      <point x="327" y="444" />
      <point x="376" y="405" />
      <point x="378" y="302" type="curve" smooth="yes" />
      <point x="378" y="301" type="line" />
      <point x="213" y="301" type="line" />
      <point x="213" y="236" type="line" />
      <point x="378" y="236" type="line" />
      <point x="378" y="209" type="line" smooth="yes" />
      <point x="378" y="99" />
      <point x="330" y="56" />
      <point x="245" y="56" type="curve" smooth="yes" />
      <point x="170" y="56" />
      <point x="125" y="94" />
      <point x="125" y="163" type="curve" smooth="yes" />
      <point x="125" y="166" type="line" />
      <point x="57" y="166" type="line" />
      <point x="57" y="163" type="line" smooth="yes" />
      <point x="57" y="59" />
      <point x="131" y="-7" />
    </contour>
  </outline>
</glyph>
<glyph name="yacyr" format="2">
  <advance width="525" />
  <unicode hex="044F" />
  <guideline x="272" y="0" angle="90" name="h1" />
  <anchor x="272" y="564" name="top" />
  <outline>
    <contour>
      <point x="81" y="0" type="line" />
      <point x="160" y="0" type="line" />
      <point x="239" y="166" type="line" />
      <point x="383" y="166" type="line" />
      <point x="383" y="0" type="line" />
      <point x="453" y="0" type="line" />
      <point x="453" y="500" type="line" />
      <point x="228" y="500" type="line" smooth="yes" />
      <point x="134" y="500" />
      <point x="73" y="438" />
      <point x="73" y="340" type="curve" smooth="yes" />
      <point x="73" y="267" />
      <point x="111" y="209" />
      <point x="171" y="181" type="curve" />
    </contour>
    <contour>
      <point x="143" y="336" type="curve" smooth="yes" />
      <point x="143" y="413" />
      <point x="208" y="435" />
      <point x="251" y="435" type="curve" smooth="yes" />
      <point x="383" y="435" type="line" />
      <point x="383" y="232" type="line" />
      <point x="255" y="232" type="line" smooth="yes" />
      <point x="189" y="232" />
      <point x="143" y="275" />
    </contour>
  </outline>
</glyph>
<glyph name="Gheupturncyrillic" format="2">
  <advance width="541" />
  <unicode hex="0490" />
  <outline>
    <component base="Gecyr" />
    <contour>
      <point x="431" y="680" type="line" />
      <point x="502" y="680" type="line" />
      <point x="502" y="834" type="line" />
      <point x="431" y="834" type="line" />
    </contour>
  </outline>
</glyph>
<glyph name="ustraightcyrillic" format="2">
  <advance width="425" />
  <unicode hex="04AF" />
  <outline>
    <contour>
      <point x="175" y="-150" type="line" />
      <point x="250" y="-150" type="line" />
      <point x="250" y="103" type="line" />
      <point x="421" y="500" type="line" />
      <point x="339" y="500" type="line" />
      <point x="213" y="202" type="line" />
      <point x="87" y="500" type="line" />
      <point x="4" y="500" type="line" />
      <point x="175" y="104" type="line" />
    </contour>
  </outline>
</glyph>
<glyph name="endash" format="2">
  <advance width="471" />
  <unicode hex="2013" />
  <outline>
    <contour>
      <point x="24" y="308" type="line" />
      <point x="447" y="308" type="line" />
      <point x="447" y="375" type="line" />
      <point x="24" y="375" type="line" />
    </contour>
  </outline>
</glyph>
<glyph name="emdash" format="2">
  <advance width="894" />
  <unicode hex="2014" />
  <outline>
    <contour>
      <point x="24" y="308" type="line" />
      <point x="870" y="308" type="line" />
      <point x="870" y="375" type="line" />
      <point x="24" y="375" type="line" />
    </contour>
  </outline>
</glyph>
<glyph name="quoteleft" format="2">
  <advance width="170" />
  <unicode hex="2018" />
  <outline>
    <contour>
      <point x="51" y="484" type="line" />
      <point x="119" y="484" type="line" />
      <point x="119" y="714" type="line" />
      <point x="51" y="651" type="line" />
    </contour>
  </outline>
</glyph>
<glyph name="quoteright" format="2">
  <advance width="170" />
  <unicode hex="2019" />
  <outline>
    <contour>
      <point x="51" y="449" type="line" />
      <point x="119" y="513" type="line" />
      <point x="119" y="680" type="line" />
      <point x="51" y="680" type="line" />
    </contour>
  </outline>
</glyph>
<glyph name="bullet" format="2">
  <advance width="462" />
  <unicode hex="2022" />
  <outline>
    <contour>
      <point x="231" y="182" type="curve" smooth="yes" />
      <point x="265" y="182" />
      <point x="295" y="193" />
      <point x="318" y="216" type="curve" smooth="yes" />
      <point x="341" y="240" />
      <point x="353" y="268" />
      <point x="353" y="303" type="curve" smooth="yes" />
      <point x="353" y="339" />
      <point x="341" y="367" />
      <point x="318" y="391" type="curve" smooth="yes" />
      <point x="295" y="414" />
      <point x="265" y="424" />
      <point x="231" y="424" type="curve" smooth="yes" />
      <point x="195" y="424" />
      <point x="166" y="414" />
      <point x="143" y="391" type="curve" smooth="yes" />
      <point x="120" y="367" />
      <point x="109" y="338" />
      <point x="109" y="303" type="curve" smooth="yes" />
      <point x="109" y="268" />
      <point x="120" y="240" />
      <point x="143" y="216" type="curve" smooth="yes" />
      <point x="166" y="193" />
      <point x="195" y="182" />
    </contour>
  </outline>
</glyph>
<glyph name="guilsinglleft" format="2">
  <advance width="296" />
  <unicode hex="2039" />
  <outline>
    <contour>
      <point x="223" y="63" type="line" />
      <point x="223" y="147" type="line" />
      <point x="109" y="260" type="line" />
      <point x="223" y="373" type="line" />
      <point x="223" y="456" type="line" />
      <point x="25" y="260" type="line" />
    </contour>
  </outline>
</glyph>
<glyph name="guilsinglright" format="2">
  <advance width="309" />
  <unicode hex="203A" />
  <outline>
    <contour>
      <point x="72" y="63" type="line" />
      <point x="271" y="260" type="line" />
      <point x="72" y="456" type="line" />
      <point x="72" y="373" type="line" />
      <point x="188" y="260" type="line" />
      <point x="72" y="147" type="line" />
    </contour>
  </outline>
</glyph>
<glyph name="fraction" format="2">
  <advance width="175" />
  <unicode hex="2044" />
  <outline>
    <contour>
      <point x="-136" y="0" type="line" />
      <point x="-71" y="0" type="line" />
      <point x="310" y="680" type="line" />
      <point x="246" y="680" type="line" />
    </contour>
  </outline>
</glyph>
<glyph name="Euro" format="2">
  <advance width="546" />
  <unicode hex="20AC" />
  <outline>
    <contour>
      <point x="295" y="-10" type="curve" smooth="yes" />
      <point x="401" y="-10" />
      <point x="473" y="50" />
      <point x="483" y="149" type="curve" />
      <point x="412" y="149" type="line" />
      <point x="401" y="89" />
      <point x="363" y="58" />
      <point x="297" y="58" type="curve" smooth="yes" />
      <point x="211" y="58" />
      <point x="172" y="114" />
      <point x="172" y="206" type="curve" smooth="yes" />
      <point x="172" y="250" type="line" />
      <point x="347" y="250" type="line" />
      <point x="358" y="308" type="line" />
      <point x="172" y="308" type="line" />
      <point x="172" y="377" type="line" />
      <point x="372" y="377" type="line" />
      <point x="383" y="435" type="line" />
      <point x="172" y="435" type="line" />
      <point x="172" y="481" type="line" smooth="yes" />
      <point x="172" y="566" />
      <point x="209" y="621" />
      <point x="295" y="621" type="curve" smooth="yes" />
      <point x="364" y="621" />
      <point x="401" y="591" />
      <point x="412" y="531" type="curve" />
      <point x="479" y="531" type="line" />
      <point x="471" y="630" />
      <point x="404" y="690" />
      <point x="295" y="690" type="curve" smooth="yes" />
      <point x="164" y="690" />
      <point x="97" y="605" />
      <point x="97" y="480" type="curve" smooth="yes" />
      <point x="97" y="435" type="line" />
      <point x="37" y="435" type="line" />
      <point x="37" y="377" type="line" />
      <point x="97" y="377" type="line" />
      <point x="97" y="308" type="line" />
      <point x="37" y="308" type="line" />
      <point x="37" y="250" type="line" />
      <point x="97" y="250" type="line" />
      <point x="97" y="208" type="line" smooth="yes" />
      <point x="97" y="75" />
      <point x="162" y="-10" />
    </contour>
  </outline>
</glyph>
<glyph name="trademark" format="2">
  <advance width="822" />
  <unicode hex="2122" />
  <outline>
    <contour>
      <point x="156" y="291" type="line" />
      <point x="215" y="291" type="line" />
      <point x="215" y="625" type="line" />
      <point x="331" y="625" type="line" />
      <point x="331" y="680" type="line" />
      <point x="38" y="680" type="line" />
      <point x="38" y="625" type="line" />
      <point x="156" y="625" type="line" />
    </contour>
    <contour>
      <point x="398" y="291" type="line" />
      <point x="455" y="291" type="line" />
      <point x="455" y="547" type="line" />
      <point x="457" y="547" type="line" />
      <point x="551" y="348" type="line" />
      <point x="594" y="348" type="line" />
      <point x="687" y="547" type="line" />
      <point x="689" y="547" type="line" />
      <point x="689" y="291" type="line" />
      <point x="745" y="291" type="line" />
      <point x="745" y="680" type="line" />
      <point x="691" y="680" type="line" />
      <point x="575" y="421" type="line" />
      <point x="572" y="421" type="line" />
      <point x="453" y="680" type="line" />
      <point x="398" y="680" type="line" />
    </contour>
  </outline>
</glyph>
<glyph name="minus" format="2">
  <advance width="503" />
  <unicode hex="2212" />
  <outline>
    <contour>
      <point x="57" y="239" type="line" />
      <point x="447" y="239" type="line" />
      <point x="447" y="306" type="line" />
      <point x="57" y="306" type="line" />
    </contour>
  </outline>
</glyph>
<glyph name="dottedcircle" format="2">
  <advance width="535" />
  <unicode hex="25CC" />
  <anchor x="267" y="0" name="bottom" />
  <anchor x="267" y="499" name="top" />
  <outline>
    <contour>
      <point x="267" y="416" type="curve" smooth="yes" />
      <point x="281" y="416" />
      <point x="293" y="427" />
      <point x="293" y="442" type="curve" smooth="yes" />
      <point x="293" y="456" />
      <point x="281" y="467" />
      <point x="267" y="467" type="curve" smooth="yes" />
      <point x="253" y="467" />
      <point x="241" y="456" />
      <point x="241" y="442" type="curve" smooth="yes" />
      <point x="241" y="427" />
      <point x="253" y="416" />
    </contour>
    <contour>
      <point x="166" y="389" type="curve" smooth="yes" />
      <point x="181" y="389" />
      <point x="192" y="400" />
      <point x="192" y="415" type="curve" smooth="yes" />
      <point x="192" y="428" />
      <point x="181" y="440" />
      <point x="166" y="440" type="curve" smooth="yes" />
      <point x="153" y="440" />
      <point x="141" y="428" />
      <point x="141" y="415" type="curve" smooth="yes" />
      <point x="141" y="400" />
      <point x="153" y="389" />
    </contour>
    <contour>
      <point x="367" y="389" type="curve" smooth="yes" />
      <point x="382" y="389" />
      <point x="393" y="400" />
      <point x="393" y="415" type="curve" smooth="yes" />
      <point x="393" y="428" />
      <point x="382" y="440" />
      <point x="367" y="440" type="curve" smooth="yes" />
      <point x="354" y="440" />
      <point x="342" y="428" />
      <point x="342" y="415" type="curve" smooth="yes" />
      <point x="342" y="400" />
      <point x="354" y="389" />
    </contour>
    <contour>
      <point x="99" y="316" type="curve" smooth="yes" />
      <point x="114" y="316" />
      <point x="125" y="327" />
      <point x="125" y="341" type="curve" smooth="yes" />
      <point x="125" y="355" />
      <point x="114" y="366" />
      <point x="99" y="366" type="curve" smooth="yes" />
      <point x="85" y="366" />
      <point x="73" y="355" />
      <point x="73" y="341" type="curve" smooth="yes" />
      <point x="73" y="327" />
      <point x="85" y="316" />
    </contour>
    <contour>
      <point x="436" y="316" type="curve" smooth="yes" />
      <point x="449" y="316" />
      <point x="462" y="327" />
      <point x="462" y="341" type="curve" smooth="yes" />
      <point x="462" y="355" />
      <point x="449" y="366" />
      <point x="436" y="366" type="curve" smooth="yes" />
      <point x="421" y="366" />
      <point x="410" y="355" />
      <point x="410" y="341" type="curve" smooth="yes" />
      <point x="410" y="327" />
      <point x="421" y="316" />
    </contour>
    <contour>
      <point x="75" y="223" type="curve" smooth="yes" />
      <point x="88" y="223" />
      <point x="101" y="235" />
      <point x="101" y="249" type="curve" smooth="yes" />
      <point x="101" y="264" />
      <point x="88" y="275" />
      <point x="75" y="275" type="curve" smooth="yes" />
      <point x="61" y="275" />
      <point x="49" y="264" />
      <point x="49" y="249" type="curve" smooth="yes" />
      <point x="49" y="235" />
      <point x="61" y="223" />
    </contour>
    <contour>
      <point x="460" y="223" type="curve" smooth="yes" />
      <point x="474" y="223" />
      <point x="486" y="235" />
      <point x="486" y="249" type="curve" smooth="yes" />
      <point x="486" y="264" />
      <point x="474" y="275" />
      <point x="460" y="275" type="curve" smooth="yes" />
      <point x="445" y="275" />
      <point x="434" y="264" />
      <point x="434" y="249" type="curve" smooth="yes" />
      <point x="434" y="235" />
      <point x="445" y="223" />
    </contour>
    <contour>
      <point x="99" y="132" type="curve" smooth="yes" />
      <point x="114" y="132" />
      <point x="125" y="143" />
      <point x="125" y="157" type="curve" smooth="yes" />
      <point x="125" y="171" />
      <point x="114" y="183" />
      <point x="99" y="183" type="curve" smooth="yes" />
      <point x="85" y="183" />
      <point x="73" y="171" />
      <point x="73" y="157" type="curve" smooth="yes" />
      <point x="73" y="143" />
      <point x="85" y="132" />
    </contour>
    <contour>
      <point x="436" y="132" type="curve" smooth="yes" />
      <point x="449" y="132" />
      <point x="462" y="143" />
      <point x="462" y="157" type="curve" smooth="yes" />
      <point x="462" y="171" />
      <point x="449" y="183" />
      <point x="436" y="183" type="curve" smooth="yes" />
      <point x="421" y="183" />
      <point x="410" y="171" />
      <point x="410" y="157" type="curve" smooth="yes" />
      <point x="410" y="143" />
      <point x="421" y="132" />
    </contour>
    <contour>
      <point x="166" y="59" type="curve" smooth="yes" />
      <point x="181" y="59" />
      <point x="192" y="70" />
      <point x="192" y="84" type="curve" smooth="yes" />
      <point x="192" y="98" />
      <point x="181" y="110" />
      <point x="166" y="110" type="curve" smooth="yes" />
      <point x="153" y="110" />
      <point x="141" y="98" />
      <point x="141" y="84" type="curve" smooth="yes" />
      <point x="141" y="70" />
      <point x="153" y="59" />
    </contour>
    <contour>
      <point x="367" y="59" type="curve" smooth="yes" />
      <point x="382" y="59" />
      <point x="393" y="70" />
      <point x="393" y="84" type="curve" smooth="yes" />
      <point x="393" y="98" />
      <point x="382" y="110" />
      <point x="367" y="110" type="curve" smooth="yes" />
      <point x="354" y="110" />
      <point x="342" y="98" />
      <point x="342" y="84" type="curve" smooth="yes" />
      <point x="342" y="70" />
      <point x="354" y="59" />
    </contour>
    <contour>
      <point x="267" y="31" type="curve" smooth="yes" />
      <point x="281" y="31" />
      <point x="293" y="42" />
      <point x="293" y="57" type="curve" smooth="yes" />
      <point x="293" y="71" />
      <point x="281" y="83" />
      <point x="267" y="83" type="curve" smooth="yes" />
      <point x="253" y="83" />
      <point x="241" y="71" />
      <point x="241" y="57" type="curve" smooth="yes" />
      <point x="241" y="42" />
      <point x="253" y="31" />
    </contour>
  </outline>
</glyph>
<glyph name="doubleobliquehyphen" format="2">
  <advance width="503" />
  <unicode hex="2E17" />
  <outline>
    <contour>
      <point x="79" y="264" type="line" />
      <point x="448" y="398" type="line" />
      <point x="424" y="464" type="line" />
      <point x="56" y="329" type="line" />
    </contour>
    <contour>
      <point x="79" y="81" type="line" />
      <point x="448" y="215" type="line" />
      <point x="425" y="279" type="line" />
      <point x="56" y="144" type="line" />
    </contour>
  </outline>
</glyph>
<glyph name="Elcyr.loclBGR" format="2">
  <advance width="586" />
  <outline>
    <contour>
      <point x="7" y="0" type="line" />
      <point x="86" y="0" type="line" />
      <point x="292" y="577" type="line" />
      <point x="500" y="0" type="line" />
      <point x="579" y="0" type="line" />
      <point x="325" y="680" type="line" />
      <point x="261" y="680" type="line" />
    </contour>
  </outline>
</glyph>
<glyph name="a.ss02" format="2">
  <advance width="499" />
  <outline>
    <contour>
      <point x="235" y="-6" type="curve" smooth="yes" />
      <point x="303" y="-6" />
      <point x="346" y="17" />
      <point x="372" y="66" type="curve" />
      <point x="372" y="0" type="line" />
      <point x="442" y="0" type="line" />
      <point x="442" y="500" type="line" />
      <point x="371" y="500" type="line" />
      <point x="371" y="430" type="line" />
      <point x="340" y="480" />
      <point x="295" y="506" />
      <point x="234" y="506" type="curve" smooth="yes" />
      <point x="123" y="506" />
      <point x="53" y="440" />
      <point x="52" y="297" type="curve" smooth="yes" />
      <point x="51" y="206" type="line" smooth="yes" />
      <point x="51" y="63" />
      <point x="130" y="-6" />
    </contour>
    <contour>
      <point x="123" y="208" type="curve" smooth="yes" />
      <point x="123" y="292" type="line" smooth="yes" />
      <point x="123" y="393" />
      <point x="164" y="443" />
      <point x="242" y="443" type="curve" smooth="yes" />
      <point x="324" y="443" />
      <point x="370" y="374" />
      <point x="371" y="298" type="curve" smooth="yes" />
      <point x="371" y="206" type="line" smooth="yes" />
      <point x="371" y="115" />
      <point x="331" y="57" />
      <point x="243" y="57" type="curve" smooth="yes" />
      <point x="161" y="58" />
      <point x="122" y="125" />
    </contour>
  </outline>
</glyph>
<glyph name="caroncmb.alt" format="2">
  <outline>
    <contour>
      <point x="-33" y="513" type="line" />
      <point x="33" y="574" type="line" />
      <point x="33" y="680" type="line" />
      <point x="-33" y="680" type="line" />
    </contour>
  </outline>
</glyph>
<glyph name="elcyr.loclBGR" format="2">
  <advance width="446" />
  <outline>
    <contour>
      <point x="13" y="0" type="line" />
      <point x="88" y="0" type="line" />
      <point x="223" y="401" type="line" />
      <point x="357" y="0" type="line" />
      <point x="433" y="0" type="line" />
      <point x="255" y="500" type="line" />
      <point x="190" y="500" type="line" />
    </contour>
  </outline>
</glyph>
<glyph name="five.dnom" format="2">
  <advance width="311" />
  <outline>
    <contour>
      <point x="155" y="-16" type="curve" smooth="yes" />
      <point x="241" y="-16" />
      <point x="283" y="38" />
      <point x="283" y="108" type="curve" smooth="yes" />
      <point x="283" y="148" type="line" smooth="yes" />
      <point x="283" y="258" />
      <point x="205" y="274" />
      <point x="163" y="274" type="curve" smooth="yes" />
      <point x="140" y="274" />
      <point x="122" y="269" />
      <point x="103" y="259" type="curve" />
      <point x="103" y="352" type="line" />
      <point x="275" y="352" type="line" />
      <point x="275" y="415" type="line" />
      <point x="36" y="415" type="line" />
      <point x="36" y="171" type="line" />
      <point x="99" y="171" type="line" />
      <point x="106" y="187" />
      <point x="115" y="212" />
      <point x="156" y="212" type="curve" smooth="yes" />
      <point x="178" y="212" />
      <point x="211" y="207" />
      <point x="211" y="146" type="curve" smooth="yes" />
      <point x="211" y="111" type="line" smooth="yes" />
      <point x="211" y="53" />
      <point x="180" y="45" />
      <point x="154" y="45" type="curve" smooth="yes" />
      <point x="107" y="45" />
      <point x="99" y="72" />
      <point x="99" y="92" type="curve" smooth="yes" />
      <point x="99" y="107" type="line" />
      <point x="29" y="107" type="line" />
      <point x="29" y="89" type="line" smooth="yes" />
      <point x="29" y="0" />
      <point x="114" y="-16" />
    </contour>
  </outline>
</glyph>
<glyph name="five.tosf" format="2">
  <advance width="512" />
  <outline>
    <contour>
      <point x="252" y="-166" type="curve" smooth="yes" />
      <point x="366" y="-166" />
      <point x="434" y="-95" />
      <point x="434" y="25" type="curve" smooth="yes" />
      <point x="434" y="83" type="line" smooth="yes" />
      <point x="434" y="207" />
      <point x="376" y="277" />
      <point x="265" y="277" type="curve" smooth="yes" />
      <point x="218" y="277" />
      <point x="178" y="260" />
      <point x="154" y="232" type="curve" />
      <point x="154" y="431" type="line" />
      <point x="421" y="431" type="line" />
      <point x="421" y="500" type="line" />
      <point x="86" y="500" type="line" />
      <point x="86" y="140" type="line" />
      <point x="153" y="140" type="line" />
      <point x="168" y="185" />
      <point x="205" y="209" />
      <point x="253" y="209" type="curve" smooth="yes" />
      <point x="324" y="209" />
      <point x="358" y="166" />
      <point x="358" y="79" type="curve" smooth="yes" />
      <point x="358" y="30" type="line" smooth="yes" />
      <point x="358" y="-56" />
      <point x="323" y="-99" />
      <point x="252" y="-99" type="curve" smooth="yes" />
      <point x="185" y="-99" />
      <point x="146" y="-63" />
      <point x="146" y="0" type="curve" smooth="yes" />
      <point x="146" y="6" type="line" />
      <point x="75" y="6" type="line" />
      <point x="75" y="-6" type="line" smooth="yes" />
      <point x="75" y="-104" />
      <point x="140" y="-166" />
    </contour>
  </outline>
</glyph>
<glyph name="four.dnom" format="2">
  <advance width="322" />
  <outline>
    <contour>
      <point x="187" y="-11" type="line" />
      <point x="258" y="-11" type="line" />
      <point x="258" y="67" type="line" />
      <point x="306" y="67" type="line" />
      <point x="306" y="130" type="line" />
      <point x="258" y="130" type="line" />
      <point x="258" y="239" type="line" />
      <point x="187" y="239" type="line" />
      <point x="187" y="130" type="line" />
      <point x="94" y="130" type="line" />
      <point x="229" y="415" type="line" />
      <point x="155" y="415" type="line" />
      <point x="17" y="121" type="line" />
      <point x="17" y="67" type="line" />
      <point x="187" y="67" type="line" />
    </contour>
  </outline>
</glyph>
<glyph name="four.tosf" format="2">
  <advance width="512" />
  <outline>
    <contour>
      <point x="319" y="-155" type="line" />
      <point x="395" y="-155" type="line" />
      <point x="395" y="0" type="line" />
      <point x="470" y="0" type="line" />
      <point x="470" y="68" type="line" />
      <point x="395" y="68" type="line" />
      <point x="395" y="244" type="line" />
      <point x="319" y="244" type="line" />
      <point x="319" y="68" type="line" />
      <point x="132" y="68" type="line" />
      <point x="341" y="511" type="line" />
      <point x="265" y="511" type="line" />
      <point x="56" y="68" type="line" />
      <point x="56" y="0" type="line" />
      <point x="319" y="0" type="line" />
    </contour>
  </outline>
</glyph>
<glyph name="nine.tosf" format="2">
  <advance width="512" />
  <outline>
    <contour>
      <point x="165" y="-153" type="line" />
      <point x="244" y="-153" type="line" />
      <point x="403" y="144" type="line" smooth="yes" />
      <point x="435" y="202" />
      <point x="449" y="243" />
      <point x="449" y="293" type="curve" smooth="yes" />
      <point x="449" y="323" type="line" smooth="yes" />
      <point x="449" y="437" />
      <point x="375" y="511" />
      <point x="258" y="511" type="curve" smooth="yes" />
      <point x="144" y="511" />
      <point x="65" y="437" />
      <point x="65" y="321" type="curve" smooth="yes" />
      <point x="65" y="290" type="line" smooth="yes" />
      <point x="65" y="183" />
      <point x="137" y="110" />
      <point x="240" y="110" type="curve" smooth="yes" />
      <point x="270" y="110" />
      <point x="295" y="115" />
      <point x="316" y="129" type="curve" />
    </contour>
    <contour>
      <point x="140" y="295" type="curve" smooth="yes" />
      <point x="140" y="324" type="line" smooth="yes" />
      <point x="140" y="395" />
      <point x="186" y="441" />
      <point x="258" y="441" type="curve" smooth="yes" />
      <point x="329" y="441" />
      <point x="373" y="395" />
      <point x="373" y="323" type="curve" smooth="yes" />
      <point x="373" y="294" type="line" smooth="yes" />
      <point x="373" y="222" />
      <point x="329" y="179" />
      <point x="258" y="179" type="curve" smooth="yes" />
      <point x="186" y="179" />
      <point x="140" y="223" />
    </contour>
  </outline>
</glyph>
<glyph name="one.osf" format="2">
  <advance width="330" />
  <outline>
    <contour>
      <point x="171" y="0" type="line" />
      <point x="246" y="0" type="line" />
      <point x="246" y="510" type="line" />
      <point x="170" y="510" type="line" />
      <point x="48" y="418" type="line" />
      <point x="48" y="335" type="line" />
      <point x="171" y="424" type="line" />
    </contour>
  </outline>
</glyph>
<glyph name="seven.dnom" format="2">
  <advance width="279" />
  <outline>
    <contour>
      <point x="42" y="-11" type="line" />
      <point x="115" y="-11" type="line" />
      <point x="265" y="362" type="line" />
      <point x="265" y="415" type="line" />
      <point x="13" y="415" type="line" />
      <point x="13" y="352" type="line" />
      <point x="190" y="352" type="line" />
    </contour>
  </outline>
</glyph>
<glyph name="seven.tosf" format="2">
  <advance width="512" />
  <outline>
    <contour>
      <point x="136" y="-157" type="line" />
      <point x="212" y="-157" type="line" />
      <point x="441" y="432" type="line" />
      <point x="441" y="500" type="line" />
      <point x="82" y="500" type="line" />
      <point x="82" y="432" type="line" />
      <point x="368" y="432" type="line" />
    </contour>
  </outline>
</glyph>
<glyph name="shchacyr.loclBGR" format="2">
  <advance width="811" />
  <outline>
    <component base="shacyr.loclBGR" />
    <contour>
      <point x="740" y="-164" type="line" />
      <point x="811" y="-164" type="line" />
      <point x="811" y="65" type="line" />
      <point x="740" y="65" type="line" />
    </contour>
  </outline>
</glyph>
<glyph name="six.dnom" format="2">
  <advance width="318" />
  <outline>
    <contour>
      <point x="160" y="-16" type="curve" smooth="yes" />
      <point x="246" y="-16" />
      <point x="293" y="42" />
      <point x="293" y="110" type="curve" smooth="yes" />
      <point x="293" y="129" type="line" smooth="yes" />
      <point x="293" y="203" />
      <point x="243" y="251" />
      <point x="170" y="251" type="curve" smooth="yes" />
      <point x="163" y="251" />
      <point x="155" y="250" />
      <point x="147" y="248" type="curve" />
      <point x="239" y="415" type="line" />
      <point x="161" y="415" type="line" />
      <point x="55" y="223" type="line" smooth="yes" />
      <point x="32" y="183" />
      <point x="25" y="151" />
      <point x="25" y="127" type="curve" smooth="yes" />
      <point x="25" y="109" type="line" smooth="yes" />
      <point x="25" y="35" />
      <point x="77" y="-16" />
    </contour>
    <contour>
      <point x="97" y="108" type="curve" smooth="yes" />
      <point x="97" y="127" type="line" smooth="yes" />
      <point x="97" y="184" />
      <point x="143" y="189" />
      <point x="160" y="189" type="curve" smooth="yes" />
      <point x="218" y="189" />
      <point x="222" y="140" />
      <point x="222" y="126" type="curve" smooth="yes" />
      <point x="222" y="108" type="line" smooth="yes" />
      <point x="222" y="67" />
      <point x="196" y="45" />
      <point x="160" y="45" type="curve" smooth="yes" />
      <point x="107" y="45" />
      <point x="97" y="87" />
    </contour>
  </outline>
</glyph>
<glyph name="two.tosf" format="2">
  <advance width="512" />
  <outline>
    <contour>
      <point x="77" y="0" type="line" />
      <point x="437" y="0" type="line" />
      <point x="437" y="67" type="line" />
      <point x="188" y="67" type="line" />
      <point x="376" y="234" type="line" smooth="yes" />
      <point x="429" y="278" />
      <point x="436" y="322" />
      <point x="436" y="355" type="curve" smooth="yes" />
      <point x="436" y="359" type="line" smooth="yes" />
      <point x="436" y="445" />
      <point x="366" y="510" />
      <point x="257" y="510" type="curve" smooth="yes" />
      <point x="157" y="510" />
      <point x="81" y="455" />
      <point x="80" y="373" type="curve" smooth="yes" />
      <point x="80" y="368" type="line" />
      <point x="155" y="368" type="line" />
      <point x="155" y="372" type="line" smooth="yes" />
      <point x="156" y="418" />
      <point x="201" y="442" />
      <point x="255" y="442" type="curve" smooth="yes" />
      <point x="318" y="442" />
      <point x="364" y="409" />
      <point x="364" y="356" type="curve" smooth="yes" />
      <point x="364" y="353" type="line" smooth="yes" />
      <point x="364" y="328" />
      <point x="355" y="306" />
      <point x="316" y="272" type="curve" smooth="yes" />
      <point x="77" y="61" type="line" />
    </contour>
  </outline>
</glyph>
<glyph name="zero.tosf" format="2">
  <advance width="512" />
  <outline>
    <contour>
      <point x="257" y="-10" type="curve" smooth="yes" />
      <point x="380" y="-10" />
      <point x="442" y="65" />
      <point x="442" y="209" type="curve" smooth="yes" />
      <point x="442" y="295" type="line" smooth="yes" />
      <point x="442" y="436" />
      <point x="381" y="510" />
      <point x="257" y="510" type="curve" smooth="yes" />
      <point x="135" y="510" />
      <point x="73" y="436" />
      <point x="73" y="295" type="curve" smooth="yes" />
      <point x="73" y="209" type="line" smooth="yes" />
      <point x="73" y="65" />
      <point x="135" y="-10" />
    </contour>
    <contour>
      <point x="148" y="220" type="curve" smooth="yes" />
      <point x="148" y="279" type="line" smooth="yes" />
      <point x="148" y="394" />
      <point x="179" y="442" />
      <point x="257" y="442" type="curve" smooth="yes" />
      <point x="336" y="442" />
      <point x="366" y="394" />
      <point x="366" y="279" type="curve" smooth="yes" />
      <point x="366" y="220" type="line" smooth="yes" />
      <point x="366" y="105" />
      <point x="336" y="58" />
      <point x="257" y="58" type="curve" smooth="yes" />
      <point x="179" y="58" />
      <point x="148" y="105" />
    </contour>
  </outline>
</glyph>
<glyph name="zhecyr.loclBGR" format="2">
  <advance width="772" />
  <guideline x="266" y="0" angle="90" name="vertical" />
  <guideline x="0" y="499" angle="0" name="horizontal" />
  <guideline x="752" y="0" angle="90" name="vertical" />
  <guideline x="0" y="499" angle="0" name="horizontal" />
  <anchor x="752" y="499" name="top" />
  <outline>
    <contour>
      <point x="13" y="0" type="line" />
      <point x="98" y="0" type="line" />
      <point x="263" y="232" type="line" />
      <point x="351" y="232" type="line" />
      <point x="351" y="0" type="line" />
      <point x="421" y="0" type="line" />
      <point x="421" y="232" type="line" />
      <point x="511" y="232" type="line" />
      <point x="674" y="0" type="line" />
      <point x="760" y="0" type="line" />
      <point x="563" y="277" type="line" />
      <point x="736" y="500" type="line" />
      <point x="650" y="500" type="line" />
      <point x="498" y="296" type="line" />
      <point x="421" y="296" type="line" />
      <point x="421" y="680" type="line" />
      <point x="351" y="680" type="line" />
      <point x="351" y="296" type="line" />
      <point x="275" y="296" type="line" />
      <point x="123" y="500" type="line" />
      <point x="38" y="500" type="line" />
      <point x="211" y="277" type="line" />
    </contour>
  </outline>
</glyph>
